<svg width="407" height="182" viewBox="0 0 407 182" fill="none" xmlns="http://www.w3.org/2000/svg">
<path d="M406.354 67.6879C406.354 67.6879 405.517 48.6649 388.057 48.6649C382.411 48.6649 375.51 56.7131 357.84 47.8113V80.004C364.95 82.4429 384.606 69.3951 392.448 65.371C397.989 62.5663 405.936 64.3954 406.354 67.6879ZM357.317 114.27V146.463C357.317 146.463 372.792 146.341 389.834 133.537C394.957 129.635 402.59 131.22 406.354 134.756C406.354 134.756 404.054 113.66 388.684 116.343C360.559 120.977 357.317 114.27 357.317 114.27ZM252.03 165.364C266.668 165.364 324.383 183.777 352.09 181.582V12.448C352.09 12.448 311.209 19.1548 275.764 3.91202C246.803 -8.5261 207.072 13.1796 207.072 13.1796C207.072 18.9109 207.072 179.021 207.072 179.021C207.072 179.021 221.814 165.364 252.03 165.364ZM220.768 109.636C222.128 109.758 226.31 109.88 227.774 109.88C227.564 113.538 227.564 138.536 227.774 141.219C227.983 143.78 229.865 144.634 231.747 143.536C232.688 143.048 233.629 143.902 232.374 145.121C230.283 146.95 227.669 151.34 226.519 152.926C224.114 150.975 221.396 148.536 221.605 146.219C221.918 142.195 220.873 113.05 220.768 109.636ZM228.401 73.0533C232.583 70.3706 242.098 68.6634 245.339 69.8828C247.012 70.3706 248.685 69.8828 248.685 69.0292C248.685 67.6879 250.253 68.0537 250.253 69.0292C250.253 70.0048 250.253 82.0771 250.148 83.1745C250.148 84.394 248.685 84.272 248.685 83.1745C248.685 81.4673 248.685 80.8576 247.43 78.5407C243.666 71.9558 233.21 71.3461 227.983 79.2724C226.205 81.9551 225.578 86.5889 227.564 87.4425C229.551 88.1742 236.974 87.5645 239.379 86.9548C241.784 86.467 247.744 85.2476 248.475 84.7598C249.207 84.272 250.044 83.6623 250.044 85.0037C250.044 86.467 250.044 90.9789 250.044 92.4422C250.044 93.9055 249.103 93.1738 248.475 92.6861C247.744 92.1983 242.202 91.5886 239.693 91.3447C235.615 90.9789 229.446 89.5155 227.46 90.1253C225.473 90.8569 227.042 94.5152 228.819 97.1979C233.942 105.246 243.457 105.49 247.325 98.9051C248.685 96.4663 248.685 95.9785 248.685 94.3932C248.685 93.2958 250.253 93.1738 250.253 94.3932C250.253 95.4907 250.148 105.49 250.148 106.466C250.148 107.441 248.58 107.685 248.58 106.466C248.685 104.393 247.534 104.514 245.443 105.246C239.902 106.953 232.479 107.563 228.087 104.636C223.487 101.588 219.409 100.49 219.305 88.662C218.886 81.3454 224.637 75.6141 228.401 73.0533ZM258.722 21.5937C256.213 22.4473 254.435 25.3739 253.808 28.3005C253.285 31.3491 244.816 60.0055 243.875 61.8346C241.889 52.9328 233.315 31.5929 230.701 27.0811C228.401 23.057 226.101 23.7886 224.01 23.7886C221.918 23.7886 222.755 21.4717 224.428 21.7156C226.833 22.0814 240.216 23.4228 243.98 24.0325C245.339 24.3983 245.339 25.7397 243.561 26.4714C242.62 26.7152 240.529 27.9347 240.529 29.1541C240.529 30.8613 245.443 43.2994 246.698 45.6163C247.848 42.4458 252.449 28.7883 251.508 25.7397C250.462 22.8131 250.148 22.3253 248.266 22.0814C246.384 21.8375 246.384 20.4962 248.685 20.1304C250.985 19.6426 257.363 19.0329 259.245 19.2767C261.022 19.5206 261.336 20.7401 258.722 21.5937ZM273.15 21.9595L270.641 24.5203H268.55L266.459 22.0814L266.354 17.3257L269.7 14.0332L273.15 17.9354V21.9595ZM279.006 55.0059L274.51 61.8346H270.327C268.236 59.3958 266.877 57.5667 266.459 55.6156L266.25 39.3972L261.022 35.8609C260.081 37.3242 258.095 37.3242 258.826 36.1048L266.041 28.7883L267.609 28.5444L272.21 33.9098L272.105 50.7379C274.405 53.6645 275.764 54.3962 279.006 55.0059ZM304.308 35.739C303.262 35.739 292.389 37.2023 292.389 37.2023C291.866 37.5681 292.911 53.1768 293.33 54.3962C293.643 55.7375 294.689 57.6886 295.944 56.3472C296.989 55.1278 298.348 57.2008 296.989 58.4203C296.257 59.1519 293.852 64.6393 292.702 65.4929C291.029 66.7123 288.52 62.5663 287.684 60.1274C286.429 55.8595 285.488 45.1285 285.488 38.0559C285.906 38.1778 280.469 35.4951 282.874 34.3976C287.684 32.0807 292.284 24.6422 292.807 22.6911C293.434 20.7401 294.898 21.5937 294.166 23.5447C292.598 27.4469 292.807 30.2516 293.434 32.4465C293.643 33.0562 302.844 32.8124 304.203 32.8124C305.04 32.9343 305.04 35.739 304.308 35.739ZM291.761 89.6375C290.82 95.1249 294.898 99.6368 298.035 101.466C300.544 102.929 304.831 102.198 305.876 101.954C306.922 101.71 306.608 101.466 307.34 100.612C308.177 99.7587 309.013 100.49 308.386 101.344C307.654 102.198 301.38 109.148 299.708 110.612C298.139 111.099 294.584 110.977 292.493 107.807C288.729 102.32 286.115 100.368 287.265 90.4911C288.102 83.7843 297.721 77.931 299.917 76.5897C300.753 77.5652 305.144 82.9307 307.131 84.7598C306.399 85.8573 303.994 87.0767 301.59 87.0767C299.185 87.0767 297.616 84.7598 296.048 82.6868C294.898 84.0282 292.493 85.6134 291.761 89.6375ZM330.133 62.9321L324.383 70.3706C322.71 68.9073 321.664 67.444 321.141 65.0051C316.75 65.9807 313.718 69.1512 311.627 70.9803C309.745 69.0292 307.026 63.9077 307.026 60.3713C306.922 56.835 309.327 51.5915 310.999 49.7623C311.209 49.8843 311.313 50.0062 311.522 50.0062C310.581 49.3965 309.64 48.6649 308.908 47.9332C308.281 47.3235 308.072 45.4944 308.908 44.153C310.058 42.3239 313.613 37.0803 317.168 36.4706C319.05 36.2267 322.187 36.7145 326.578 41.3483C326.055 42.2019 326.055 56.957 326.055 58.4203C327.624 60.6152 330.133 62.9321 330.133 62.9321ZM342.052 96.4663C340.17 96.3443 338.184 95.9785 337.138 95.6127C335.465 95.1249 336.197 92.93 337.557 92.93C338.916 92.93 341.007 93.4177 341.948 93.7835C342.889 94.2713 343.307 96.5882 342.052 96.4663ZM341.948 101.71C339.961 101.588 338.079 101.222 337.034 100.856C335.361 100.246 335.988 98.1735 337.452 98.1735C338.707 98.1735 340.798 98.6612 341.843 99.0271C342.784 99.5148 343.203 101.954 341.948 101.71ZM311.731 132.927C313.613 131.708 318.214 126.83 319.782 125.489C322.396 127.805 324.173 130.244 325.428 131.952C327.206 130.854 329.924 128.537 331.179 127.318C333.479 129.269 336.093 131.708 337.034 133.049C338.288 131.708 339.752 132.805 338.393 134.39C337.034 135.854 334.002 138.902 332.956 140C331.283 138.902 328.356 135.122 327.415 134.268C326.892 134.756 325.951 135.366 325.114 135.854C325.114 137.927 325.114 155.486 325.01 157.681C322.501 157.803 320.514 158.047 318.841 157.559C318.737 154.755 318.946 139.512 318.841 137.073C318.632 134.025 314.45 133.049 311.731 132.927ZM310.686 99.149C310.895 90.3692 315.914 82.9307 323.964 79.6382C330.342 82.0771 332.956 89.6375 333.165 94.6371C333.27 98.7832 330.97 104.149 329.401 107.441C326.892 109.392 324.383 112.197 321.978 114.88C314.345 114.88 310.581 104.271 310.686 99.149ZM280.888 127.927C283.188 124.879 285.697 122.928 287.056 121.343C289.461 123.416 290.298 124.757 291.657 127.196C291.657 130.976 290.925 139.146 291.134 141.951C291.239 144.755 300.649 146.585 301.067 142.439C301.485 138.414 301.171 133.171 301.067 130.854C300.858 129.025 297.198 128.171 295.316 128.415C297.826 125.367 300.021 123.05 301.59 121.343C303.89 123.294 306.085 126.22 307.445 128.537C307.34 132.683 306.713 142.195 307.235 144.755C307.863 147.438 307.654 147.56 309.327 148.902C307.549 150.731 306.295 151.584 305.144 153.169C303.367 152.56 300.335 149.511 300.544 146.707C298.348 148.414 292.075 151.462 289.775 152.194C287.475 149.389 285.697 148.658 285.593 145.365C285.488 141.951 286.22 132.927 285.279 130.732C284.442 128.537 282.77 128.049 280.888 127.927ZM275.555 103.295C273.255 101.71 270.118 98.2954 268.445 95.3688C265.413 100.003 264.682 103.905 259.036 105.49C262.277 102.32 265.204 95.3688 264.995 88.662C264.786 82.5648 261.963 79.6382 259.454 78.5407C257.363 79.7602 255.481 81.3454 254.331 81.9551C253.18 82.4429 252.867 80.3699 253.703 79.8821C256.422 78.2969 262.381 73.0533 263.218 71.9558C265.727 72.4436 268.864 75.0044 269.282 77.4433C271.164 76.1019 274.614 71.712 275.66 70.7365C276.81 73.0534 280.26 75.98 284.024 77.5652C280.574 84.5159 272.732 80.3699 271.687 78.6627C270.432 81.1015 270.118 82.5648 271.373 85.6134C272.941 89.7595 279.319 93.6616 282.665 94.7591C281.724 95.9785 277.124 101.954 275.555 103.295ZM266.564 124.269C266.877 124.391 261.545 121.952 263.845 120.611C267.818 118.294 271.791 113.416 272.419 111.465C273.046 109.636 274.51 110.49 273.778 112.319C273.046 114.27 272.419 118.904 272.941 120.367C273.15 120.977 276.183 121.343 277.542 121.343C278.274 121.343 278.274 124.147 277.437 124.147C276.392 124.147 272.628 124.147 272.628 124.147C272.105 124.513 272.523 139.878 272.837 141.219C273.255 142.439 276.392 143.414 277.542 142.073C278.692 140.853 279.947 142.073 278.483 143.292C277.751 144.024 275.346 148.414 273.464 149.267C271.478 150.121 268.55 148.658 267.295 146.463C265.309 142.926 266.459 131.342 266.564 124.269ZM254.331 149.267C252.344 147.56 250.671 147.072 250.044 144.39C245.025 146.707 243.143 149.999 240.111 152.56C238.334 150.609 236.87 147.194 236.765 143.658C236.661 140.122 239.693 135.366 241.366 133.659C241.157 133.415 241.052 133.415 240.843 133.171C240.216 132.561 239.275 127.44 240.111 125.976C241.261 124.147 245.757 116.953 249.207 116.587C251.612 116.343 253.494 119.879 255.585 122.44C255.062 123.172 255.272 135.61 255.167 137.195C257.467 140 258.304 140.731 259.663 139.634C261.022 138.536 261.545 139.634 260.604 140.731C259.767 141.585 255.481 147.804 254.331 149.267ZM249.939 133.903C249.939 131.22 249.939 128.659 249.73 127.318C249.939 125.367 246.384 122.562 245.443 122.44C244.398 122.44 243.561 122.928 242.307 125.123C241.679 126.342 241.784 131.098 242.411 131.586C245.339 134.756 247.221 134.39 249.939 133.903ZM243.875 135.61C241.157 141.585 243.352 142.804 244.921 144.268C246.803 143.17 248.475 142.195 249.835 141.097C249.835 140 249.939 138.049 249.939 135.732C246.803 136.098 245.862 136.829 243.875 135.61ZM316.332 100.003C317.586 103.783 323.023 108.66 324.487 109.514C326.787 106.344 327.937 100.49 327.415 95.6127C326.996 91.8325 322.814 87.6864 319.259 86.1012C314.763 89.3936 314.763 94.881 316.332 100.003ZM316.227 65.0051C318.109 63.9077 319.468 63.5418 320.932 63.4199C320.828 62.5663 320.828 61.7127 320.828 60.6152C320.828 59.7616 320.932 57.4447 320.932 55.0059C318.423 54.0303 315.182 52.4451 312.463 50.7379C312.881 50.9818 313.3 51.2256 313.718 51.5915C310.581 57.8105 314.659 63.5418 316.227 65.0051ZM310.372 47.0796C312.463 49.0307 318.005 52.0793 320.932 53.2987C320.932 50.494 320.932 47.6893 320.723 46.348C320.932 44.5188 315.182 40.8606 314.345 40.8606C313.3 40.7386 311.836 42.6897 310.581 45.0066C309.745 46.348 309.849 46.5919 310.372 47.0796ZM159.499 165.364C181.665 167.071 200.485 179.021 200.485 179.021V12.6919C200.485 12.6919 167.968 -13.8916 115.168 9.88719C99.5888 16.8379 61.8444 10.9847 61.8444 10.9847V180.972C94.9884 183.655 138.17 163.657 159.499 165.364ZM143.816 75.858C148.102 77.4433 154.376 76.2238 156.362 82.8087C158.453 89.7594 154.585 98.6612 149.671 99.149C145.489 99.5148 141.725 97.9296 139.424 98.1735C138.379 98.2954 137.542 98.6612 137.333 100.003C137.229 101.466 135.556 102.076 135.242 100.125C134.929 98.2954 134.406 90.3692 134.406 88.0523C134.406 85.7354 136.183 85.4915 136.601 88.0523C136.915 90.4911 137.542 92.3202 139.215 94.3932C140.47 96.1004 148.625 98.4174 151.657 95.6127C154.062 93.2958 153.539 88.4181 151.03 86.467C148.521 84.5159 138.483 81.8332 136.706 78.4188C133.778 72.6875 139.006 67.9318 141.306 66.3465C144.861 64.0296 149.043 64.7612 150.507 64.7612C151.866 64.7612 153.748 65.249 153.853 63.5418C153.958 61.8347 155.108 61.9566 155.317 63.7857C155.735 68.9073 156.153 65.8587 156.049 71.3461C156.049 73.9069 155.317 73.9069 154.376 71.9558C153.748 70.7364 147.58 64.6393 142.561 68.4195C138.274 71.8339 139.843 74.6386 143.816 75.858ZM155.944 110.002C154.062 112.075 152.598 113.904 151.03 115.977C149.671 114.88 147.475 112.807 145.907 111.099C148.521 109.636 149.984 107.807 150.925 105.734C151.971 108.417 154.062 109.514 155.944 110.002ZM128.864 122.806C131.165 120.855 134.929 112.685 135.451 110.734C135.974 108.782 136.915 109.514 136.706 111.587C136.497 114.514 135.347 120.977 135.765 122.318C135.974 122.928 139.529 122.928 140.679 122.928C141.411 122.928 141.515 125.611 140.784 125.611C139.843 125.611 135.87 126.342 135.87 126.342C135.347 126.586 135.66 136.219 136.392 137.317C137.961 139.146 139.215 140.366 141.411 137.683C142.456 136.463 143.607 137.561 142.352 138.902C141.725 139.634 138.693 143.902 137.961 145.975C137.229 148.048 133.256 146.463 132.001 144.268C130.014 140.731 130.851 133.659 130.642 126.83C131.165 126.83 126.982 124.513 128.864 122.806ZM125.832 102.685C124.368 104.149 121.232 101.832 119.977 99.5148C118.2 95.8566 118.722 87.4425 118.932 80.4918C119.141 80.4918 117.886 78.7846 116.631 78.5407C115.063 78.053 114.854 77.4433 117.259 76.2238C120.186 74.8825 124.787 66.5904 125.414 64.6393C125.937 62.8102 126.878 64.5174 126.041 66.3465C124.159 70.4926 124.996 75.2483 125.309 76.7116C125.519 77.3213 131.06 76.4677 132.315 76.4677C133.047 76.4677 133.047 79.2724 132.315 79.1504C131.374 79.1504 124.055 80.126 124.055 80.126C123.532 80.4918 124.682 93.9055 125.414 94.881C125.519 95.003 127.819 97.3199 128.655 96.3443C129.701 95.1249 130.851 96.4663 129.492 97.6857C128.76 98.5393 127.505 101.1 125.832 102.685ZM99.5889 123.294C102.307 120.855 103.771 118.904 105.549 116.953C107.117 119.879 107.849 122.684 109.312 123.903C111.194 121.952 114.436 119.635 115.899 117.806C117.259 118.66 119.768 120.367 119.977 126.22C120.082 132.073 120.814 141.219 120.814 143.292C120.814 144.39 121.023 144.024 122.486 143.658C123.846 143.17 124.368 144.024 123.323 145.121C122.277 146.097 117.363 150.121 116.004 151.828C114.227 148.048 113.913 145.365 114.645 141.585C115.168 138.536 114.749 130.122 114.749 128.293C114.749 126.464 112.345 125.732 111.299 124.635C109.835 125.854 109.626 126.098 108.371 127.562C108.371 130.122 108.058 147.682 108.476 149.999C105.13 150.121 105.444 149.877 103.457 149.877C103.248 146.463 103.353 132.927 103.248 130C102.935 127.074 100.844 124.879 99.5889 123.294ZM76.9004 132.805C78.3641 121.343 87.8787 116.709 90.7016 114.514C91.2244 117.806 94.4656 123.659 96.6613 125.976C93.4201 129.025 86.1012 136.341 83.1737 138.78C84.742 142.073 90.5971 144.512 92.5836 141.951C94.0474 140.244 95.8249 140.853 94.2565 143.048C92.1654 145.975 89.9698 149.999 88.8197 152.56C84.5329 150.365 75.6457 143.78 76.9004 132.805ZM74.4956 79.8821C76.9004 75.7361 82.4418 71.8339 86.2058 70.2487C87.3559 71.9559 88.8197 74.3947 90.5971 77.0774C88.8197 78.6627 86.9377 80.8576 85.9967 82.3209C85.1602 81.2235 80.6644 73.2972 77.4231 78.9066C75.6457 81.8332 73.8683 90.4911 79.7234 95.8566C82.5464 98.4174 85.683 99.271 89.5515 98.4174C87.565 101.466 87.0422 102.32 85.8921 105.002C80.1416 106.222 77.8414 104.027 75.0184 101.344C69.1633 95.7346 71.0453 85.9792 74.4956 79.8821ZM100.112 64.7612C99.1706 63.0541 98.857 61.5908 96.8704 62.2005C91.7472 63.9077 86.1012 65.7368 82.0236 62.9321C77.6322 59.8836 73.9728 58.908 73.8682 47.3235C73.7637 40.2509 79.096 34.7634 82.5464 32.3246C86.5195 29.6418 93.3155 31.349 96.3476 32.4465C97.8114 33.0562 98.9615 32.8124 99.0661 30.4955C99.0661 29.276 100.739 29.5199 100.739 30.4955C100.739 31.471 100.634 45.7383 100.634 46.8357C100.634 47.9332 98.6479 48.0552 98.6479 46.9577C98.6479 45.3724 98.1251 42.2019 97.7069 39.7631C96.975 35.9829 88.6106 29.1541 82.5464 38.4217C82.4418 38.9095 79.9325 43.7872 80.2461 47.4454C80.4553 50.2501 80.8735 54.2742 82.4418 56.835C87.1468 64.6393 93.9429 62.0785 97.4977 55.6156C98.7524 53.2987 98.5433 50.494 98.6479 48.7868C98.6479 47.8113 100.53 47.6893 100.53 48.7868C100.53 50.0062 100.425 59.3958 100.425 60.3713C100.425 61.7127 101.366 62.8102 101.785 63.5418C103.144 65.7368 101.785 67.322 100.112 64.7612ZM104.607 73.0533C106.803 72.8095 108.685 78.053 110.672 80.6138C110.149 81.3454 110.149 96.954 110.149 98.5393C110.567 99.3929 112.135 100.49 112.867 99.7587C113.913 98.5393 114.645 99.7587 113.704 100.734C112.867 101.71 108.476 106.222 107.326 107.563C105.758 106.222 105.235 104.149 105.026 101.466C102.307 102.198 99.798 103.905 98.2296 106.831C95.1975 105.246 92.8973 102.198 92.7928 98.7832C92.6882 95.2468 94.7793 93.1738 96.975 90.8569C96.5567 90.4911 96.2431 90.2472 95.8249 89.7595C95.1975 89.1497 94.3611 83.4184 94.9884 81.9551C96.4522 77.931 101.262 73.4192 104.607 73.0533ZM128.864 34.7634C127.61 36.2267 124.682 38.4217 123.532 39.3972C122.068 38.4217 120.186 35.2512 119.245 34.3976C118.827 34.8854 117.991 35.3732 117.154 35.9829C117.154 38.0559 117.259 56.5911 117.05 58.6641C114.854 58.7861 112.867 59.03 111.299 58.5422C111.09 55.8595 111.404 41.1044 111.299 38.6656C111.09 35.739 108.894 35.4951 105.967 34.5195C107.64 32.2026 110.776 29.5199 112.135 28.3005C114.645 30.6174 116.213 30.6174 117.468 32.3246C119.141 31.2271 121.964 29.276 123.218 28.0566C124.368 29.6419 126.669 32.3246 127.505 33.544C128.76 32.2026 130.224 33.1782 128.864 34.7634ZM151.971 52.8109C150.507 53.6645 147.58 57.2008 145.279 57.2008C138.274 56.835 129.492 50.9818 130.746 40.007C132.106 28.6663 139.738 24.2764 143.084 24.1545C146.848 24.5203 147.789 28.3005 149.88 30.6174C146.639 33.666 141.411 39.7631 138.274 43.4213C139.006 45.3724 142.666 52.567 150.298 50.2501C153.958 49.2746 155.108 51.1037 151.971 52.8109ZM179.678 32.9343C178.946 34.0318 176.019 36.7145 172.777 39.7631C173.3 39.885 173.823 40.007 174.241 40.3728C179.574 44.031 181.351 49.1526 176.123 53.9084C173.3 56.5911 168.595 59.6397 163.577 59.7616C160.231 59.8836 154.376 56.5911 153.226 55.2498C155.944 52.3231 158.872 49.0307 160.963 46.9577C157.722 44.0311 154.585 40.007 157.094 35.4951C158.976 32.0807 164.831 26.5933 170.059 26.8372C175.287 27.0811 177.587 31.2271 179.678 32.9343ZM183.024 64.1516L186.161 67.9317V71.8339L183.86 74.2728H181.874L179.887 71.9558L179.783 67.444L183.024 64.1516ZM188.879 45.7382C181.56 46.1041 183.442 42.2019 184.697 42.2019C190.866 42.6897 190.029 45.7382 188.879 45.7382ZM188.774 50.8598C181.456 50.0062 183.338 47.3235 184.592 47.4454C191.493 47.8113 189.925 50.9818 188.774 50.8598ZM192.12 101.222L189.402 104.636L185.951 108.051C183.965 105.734 182.606 105.124 182.292 103.173L182.187 87.8084L179.051 85.6134C177.273 87.5645 175.705 86.7109 177.378 85.0037L183.547 78.4188L185.01 78.1749L187.624 82.8087L187.52 99.149C189.088 100.856 189.088 100.612 192.12 101.222ZM164.831 141.097C164.831 137.439 166.4 134.512 168.595 131.83C168.386 131.708 168.386 131.586 168.177 131.464C167.55 130.854 166.504 124.391 167.341 123.05C168.386 121.221 173.3 115.733 176.541 115.367C178.842 115.123 182.187 120.733 184.069 123.294C183.547 124.025 184.697 139.756 184.697 141.219C185.324 142.561 187.729 143.414 188.461 142.195C189.402 140.853 190.238 142.317 189.402 143.292C188.461 144.268 185.115 147.438 184.069 148.902C182.606 147.56 179.992 145.975 178.423 143.658C175.078 144.39 171.627 147.194 168.909 149.511C165.981 148.17 164.936 144.634 164.831 141.097ZM159.917 94.5152C157.826 87.9303 161.59 81.7113 163.368 79.8821C164.831 78.5407 168.177 75.1264 170.373 73.5411C172.464 75.0044 174.137 76.1019 175.182 76.7116C174.764 77.931 174.346 80.3699 172.15 80.4918C168.804 80.6138 166.086 79.5163 164.309 81.8332C162.531 84.1501 163.89 90.613 166.191 93.0519C167.863 95.003 172.568 97.3199 173.405 95.1249C174.555 92.1983 176.228 93.7835 174.555 96.2224C173.509 97.8076 171.523 101.344 170.373 103.661C166.818 103.539 161.904 101.344 159.917 94.5152ZM161.172 140.366L158.558 143.78L156.049 146.829C154.062 144.512 152.703 144.024 152.389 142.195L152.285 127.196L148.312 124.757C146.43 126.586 145.07 125.732 146.639 124.147L152.703 117.562L154.167 117.318L157.931 123.903L158.035 138.049C159.604 139.756 158.244 139.756 161.172 140.366ZM170.686 133.781C166.4 137.927 171.209 141.829 172.568 143.17C174.032 142.317 175.914 141.951 177.378 141.341C177.169 140.609 176.96 140 176.96 139.268C176.96 138.536 177.064 136.829 177.169 135C174.241 135.366 172.987 135.61 170.686 133.781ZM177.273 133.293C177.378 130.854 177.482 128.293 177.273 126.952C177.482 125.123 172.568 121.586 171.732 121.586C170.686 121.586 170.686 122.196 169.536 124.391C168.909 125.611 169.432 129.147 169.955 129.635C172.673 132.439 174.764 133.293 177.273 133.293ZM168.804 40.007C170.268 38.6656 171.523 37.4462 172.046 36.9584C169.954 34.6415 166.4 32.4465 164.727 32.2026C163.158 31.9587 159.917 33.666 161.172 35.617C162.427 37.4462 163.681 39.7631 166.295 40.2509C167.132 40.2509 167.968 40.1289 168.804 40.007ZM166.504 45.6163C164.099 47.8113 162.008 49.7623 160.858 50.8598C161.695 52.8109 167.236 57.4447 170.268 55.7375C173.3 54.1523 174.764 50.6159 171.941 48.7868C170.059 47.4454 168.282 46.4699 166.504 45.6163ZM137.751 41.2264C139.111 40.007 142.561 35.4951 144.757 33.0562C143.502 32.2027 141.306 30.3735 140.365 27.8127C136.601 31.471 135.87 33.9098 137.751 41.2264ZM104.921 99.149C104.921 98.4174 104.921 97.6857 104.921 96.8321C104.921 95.8566 104.921 93.5397 104.921 90.9789C102.412 92.808 101.366 94.1494 98.7524 92.4422C94.4656 96.4663 100.948 98.9051 102.307 100.246C103.353 99.5148 104.189 99.271 104.921 99.149ZM104.817 88.9059C104.817 86.9548 104.712 85.0037 104.607 84.0281C104.817 82.199 101.785 77.931 100.948 77.8091C100.007 77.8091 97.916 79.8821 96.7659 82.0771C96.1385 83.2965 96.034 86.5889 97.2887 88.2961C99.9025 91.7105 101.157 91.7105 104.817 88.9059ZM86.1012 120.855C78.0505 126.586 79.4097 133.049 82.1281 136.951C83.5919 135.732 88.8197 131.586 90.9108 129.147C89.7607 128.293 87.0422 123.416 86.1012 120.855ZM37.0648 143.414H55.0483V122.806H37.0648V143.414ZM37.0648 71.4681H55.0483V50.8598H37.0648V71.4681ZM15.8401 113.294C-5.28004 113.294 -5.28004 149.389 15.8401 149.389C36.3329 149.389 36.2284 113.294 15.8401 113.294ZM15.8401 41.1045C-4.33904 41.1045 -4.75726 77.1994 15.8401 77.1994C36.2284 77.3213 36.2284 41.1045 15.8401 41.1045Z" fill="#ADADAD"/>
</svg>
