<?xml version="1.0" encoding="UTF-8"?>
<svg id="Layer_1" xmlns="http://www.w3.org/2000/svg" version="1.1" viewBox="0 0 612 792">
  <!-- Generator: Adobe Illustrator 29.3.1, SVG Export Plug-In . SVG Version: 2.1.0 Build 151)  -->
  <defs>
    <style>
      .st0 {
        fill: maroon;
      }
    </style>
  </defs>
  <path class="st0" d="M242.89,256.55c-1.61,1.21,1.9,2.9,1.59,2.81.13,4.98-.59,10.1,1.1,12.63,1.07,1.57,4.42,2.73,5,1.22.56-1.52,3.1-4.61,3.66-5.13,1.06-.93.13-1.78-.76-.87-1.84,1.94-2.86,1.05-4.21-.24-.65-.74-.9-7.71-.43-7.92,0,0,3.36-.49,4.17-.49.62,0,.57-1.94-.09-1.94-1.01,0-4.01.03-4.18-.44-.38-.96.6-5.66.77-7.77.13-1.48-.66-1.96-1.06-.58-.43,1.36-3.66,7.32-5.57,8.71M251.78,238.76c1.95-.16,5.1,1.01,8.6.72,4.16-.29,7.43-6.74,5.62-11.76-1.67-4.76-6.98-3.92-10.55-5.07-3.29-.89-4.64-2.96-1.06-5.31,4.21-2.72,9.44,1.64,9.94,2.56.77,1.39,1.42,1.37,1.42-.44.11-3.94-.25-1.71-.65-5.42-.13-1.32-1.09-1.44-1.18-.17-.09,1.3-1.67.9-2.85.9-1.21-.02-4.73-.56-7.76,1.13-1.93,1.12-6.35,4.58-3.88,8.74,1.45,2.42,9.93,4.39,12.04,5.79,2.12,1.38,2.6,4.94.57,6.58-2.52,2-9.39.32-10.44-.9-1.39-1.54-1.92-2.8-2.21-4.58-.29-1.83-1.82-1.67-1.82,0s.39,7.37.69,8.7c.28,1.39,1.67.93,1.8-.12.16-.98.81-1.26,1.73-1.34M261.48,244.25c-.76,1.5-1.99,2.87-4.23,3.89,1.36,1.19,3.13,2.72,4.31,3.49,1.34-1.5,2.58-2.89,4.14-4.35-1.54-.3-3.32-1.08-4.21-3.03M240.32,242.04c1.43-1.14,2.47-3.06,3.06-3.51,1.09-.91.19-1.84-.73-.96-.73.72-2.68-.96-2.76-1.08-.63-.74-1.55-10.42-1.12-10.64,0,0,6.16-.76,6.97-.74.61.04.69-1.92.03-1.95-1,0-5.7.65-5.87.19-.26-1.02-.89-4.47.65-7.44.73-1.3-.02-2.54-.5-1.22-.54,1.35-4.4,7.34-6.9,8.32-2.03.84-1.8,1.3-.49,1.64,1.04.2,2.12,1.45,1.92,1.43-.21,4.96-.69,11.1.85,13.69.98,1.65,3.68,3.35,4.9,2.27M223.3,252.28c-1.55,1.46-2.78,2.8-5.05,4.6,1.06,1.21,2.84,2.74,3,4.83.14,2.11.06,11.88.19,14.33,1.66,0,1.37.18,4.22.06-.28-1.66-.04-14.34-.04-16.16,1.07-1.02,1.22-1.18,2.45-2.09.88.77,2.95,1.23,2.95,2.59s.41,7.39-.08,9.62c-.6,2.71-.33,4.67,1.13,7.4,1.11-1.24,5.27-4.14,6.16-4.87.89-.76.43-1.35-.72-1.03-1.23.27-1.45.5-1.45-.27,0-1.46-.58-8.07-.67-12.3-.16-4.23-2.22-5.47-3.4-6.06-1.22,1.35-3.92,3.04-5.54,4.42-1.22-.9-1.83-2.93-3.17-5.06M206.92,255.16c.72,1.84,3.02,5.34,4.06,5.96-1.79,1.79-6.18,4.77-7.42,5.64-2.25-2.82-3.46-7.43,3.36-11.6M199.18,263.77c-1.07,7.94,6.42,12.67,10.02,14.2.91-1.82,2.75-4.79,4.55-6.87,1.38-1.6-.14-2.02-1.37-.79-1.65,1.82-6.61.09-7.92-2.3,2.39-1.8,8.63-7.02,11.34-9.24-1.79-1.68-4.56-5.85-4.99-8.25-2.42,1.63-10.42,4.99-11.63,13.25M197.12,225.59c-2.89,4.42-4.47,11.38.54,15.46,2.36,1.97,4.31,3.5,9.11,2.64.96-1.91,1.38-2.54,3.07-4.74-3.31.54-5.87-.06-8.29-1.89-4.98-3.86-3.44-10.08-1.97-12.21,2.68-3.99,6.5,1.72,7.19,2.49.89-1.06,2.42-2.57,3.92-3.75-1.48-1.96-2.69-3.79-3.7-4.97-3.18,1.15-7.86,4-9.86,6.97M220.26,213.79c-.39-.49-1.11-1.28-1.15-2.27,0-.65.08-7.47.08-8.33,0-.8-1.61-.72-1.61,0-.08,1.22.11,3.28-.98,4.95-2.99,4.64-8.7,6.54-12.71.86-1.36-1.88-1.69-4.74-1.86-6.77-.27-2.72,1.8-6.24,1.91-6.56,5.1-6.68,12.17-1.73,12.75,1,.38,1.81.79,4.03.79,5.2-.05.77,1.62.69,1.66-.11,0-.83.05-11.1.05-11.82.04-.67-1.35-.89-1.37,0-.08,1.62-1.04,1.76-2.28,1.36-2.58-.77-8.3-2-11.63-.09-2.93,1.72-7.41,5.75-7.33,10.83.09,8.34,3.24,9.04,6.89,11.29,3.43,2.02,8.16.71,12.49-.54,1.72-.47,1.93.61,2.75,1.84,1.4,1.87,2.53.67,1.54-.84M222.71,237.76c-.02.61,0,1.13.01,1.69-.61.15-1.29.29-2.13.72-1.16-.97-6.61-2.76-3.03-5.64,2.19,1.29,3.04.28,5.16-1.02.02,1.84,0,3.59,0,4.26M222.67,232.09c-3.14,2.04-4.14,1.97-6.31-.47-1.07-1.25-.98-3.6-.48-4.48.98-1.53,2.69-3.07,3.5-3.06.71.05,3.24,3.12,3.06,4.46.13.75.19,2.12.22,3.55M222.45,220.6c-2.81.26-6.88,3.54-8.09,6.38-.5,1.13.21,5.22.72,5.67.37.32.66.54.99.8-1.85,1.72-3.58,3.18-3.53,5.74.08,2.46,2.03,4.65,4.55,5.79,1.36-2.06,3.47-3.32,5.73-3.85.18,1.96.65,3.4,1.93,4.39.93-1.02,4.63-4.23,5.35-4.95.78-.74.2-1.63-.72-.74-.54.5-1.87-.25-2.26-.89,0-1.07,0-12.39.48-12.91-1.67-1.81-3.27-5.64-5.14-5.44M242.92,192.96c1.11-1.09-.08-1.88-1.06-.93-.73-.88-2.61-2.81-3.61-3.99-1.06.89-3.51,2.35-4.87,3.11-1.06-1.22-2.37-1.22-4.51-2.89-1.18.9-3.8,2.82-5.21,4.53,2.48.72,4.36.87,4.51,2.99.09,1.74-.19,12.4-.04,14.36,1.33.29,2.95.16,4.84.06.15-1.53.08-14.91.08-16.39.71-.4,1.45-.79,1.8-1.12.78.6,2.33,2.86,3.58,3.6.96-.71,3.42-2.27,4.48-3.33M250.41,197.65c-1.64-5.26-1.02-7.07,2.25-9.67.74,1.81,2.61,3.12,3.66,3.75-1.84,1.8-4.71,5.05-5.9,5.93M261.05,204.16c-6.48,1.63-9.52-3.56-10.16-4.95,2.62-2.68,7.07-7.06,9.79-9.29-1.79-1.65-2.53-4.39-5.72-4.63-2.78.07-9.26,3.23-10.4,11.46-1.09,7.9,6.33,12.17,12.21,12.41,1.96,0,4.4-2.54,5.62-3.13,2.61-1.27,1.64-2.54-1.33-1.86M279.28,194.56c-.39.31-1.5,1.21-2.7,2.17-.7.12-1.43.2-2.16.11-2.22-.32-3.29-1.99-4.31-3.33-1.06-1.41,1.67-2.57,3.01-2.43,1.36.19,4.37,1.8,6.16,3.47M274.61,200.78c1.47.67,2.97,1.33,4.61,2.29,2.36,1.34,1.15,3.88-1.4,5.06-2.58,1.19-7.22-2.16-7.94-3.53.95-.82,2.73-2.24,4.73-3.82M285.74,191.66c-1.8-1.23-3.75-4.22-8.09-4.42-4.36-.17-9.28,3.76-10.88,6.24-2.12,3.27.48,6.15,3.25,8.27-1.77,1.52-4.24,3.86-6.51,6,.91.99,5.9,3.35,8.71,3.28,4.23-.09,8.15-2.28,10.56-4.22,4.4-3.49,2.87-7.18-1.61-9.8-.42-.26-.84-.33-1.27-.42,2.78-2.2,5.21-4.17,5.84-4.94M291.13,216.96l-2.64-2.74-2.66,2.39.05,3.29,1.63,1.67h1.65l1.97-1.79v-2.84ZM289.94,198.39c-1.02-.06-2.62,2.76,3.54,2.52.96-.04,1.68-2.23-3.54-2.52M289.87,202.08c-1.06-.07-2.66,1.87,3.51,2.51.96.11,2.25-2.16-3.51-2.51M293.88,243.46l2.29-2.46c-2.56-.48-2.56-.32-3.92-1.54l.1-11.82-2.23-3.3-1.19.16-5.14,4.74c-1.38,1.24-.14,1.83,1.4.46l2.65,1.62.1,11.13c.27,1.33,1.45,1.79,3.08,3.48l2.87-2.48ZM278.16,264.49c1.91,1.29,3.01,1.12,5.42.89-.1,1.3-.19,2.5-.19,3.04,0,.58.24,1.04.4,1.52-1.24.44-2.83.71-4.06,1.33-1.11-.98-5.19-3.77-1.57-6.78M283.67,264.12c-2.08.04-3.88-.6-6.16-2.6-.43-.37-.84-2.95-.35-3.8,1-1.6,1-2.09,1.87-2.07.68,0,4.88,2.54,4.66,3.89.16.97.09,2.79-.03,4.58M276.41,263.14c-1.85,1.91-3.22,4.01-3.2,6.66.09,2.52.93,5.03,3.5,6.17,2.27-1.68,5.2-3.71,8.01-4.24,1.38,1.66,3.5,2.77,4.77,3.77.88-1.07,3.69-3.35,4.47-4.06.74-.76,0-1.81-.78-.82-.59.91-2.58.25-3.14-.68,0-1.08-1.03-12.42-.58-12.94-1.64-1.83-4.45-5.94-6.36-5.74-2.76.28-6.89,4.23-7.78,5.52-.67.97.21,5.64.73,6.09.14.1.21.14.35.26M269.03,236.15c1.73,4.9,5.79,6.45,8.82,6.68.9-1.68,2.58-4.23,3.49-5.41,1.36-1.81-.02-2.9-.98-.81-.74,1.61-4.67-.15-6.09-1.52-1.91-1.78-3.1-6.46-1.58-8.1,1.54-1.66,3.75-.9,6.59-.98,1.88-.09,2.28-1.83,2.6-2.71-.9-.43-2.26-1.19-4.04-2.27-1.83,1.16-4.66,3.58-5.89,4.59-1.52,1.29-4.66,5.75-2.93,10.53M267.92,271.68l2.23-2.47c-2.51-.46-1.35-.44-2.67-1.66l-.08-10.2-3.26-4.79-1.24.17-5.11,4.78c-1.35,1.19-.16,1.75,1.41.44l3.39,1.75.08,10.82c.28,1.34,1.47,1.64,3.12,3.34l2.13-2.17ZM310.51,330.62s2.07-2.24,2.06-3.84c0-2.17-2.05-3.75-2.05-3.75,1.76.5,5.93,2.85,7.42,3.83l-7.43,3.75ZM323.61,326.66v-.28c-4.58-.66-8.17-3.86-12.36-5.45-5.79-2.19-11.93,2.28-11.93,2.99,0,1.56,1.64,2.35,6.33-.59-3.67,4.25.5,7.7.5,7.7-1.52-.23-3.7-.74-5.09-1.53-.28,1.53,1.83,2.1,2.84,2.76,7.77,3.19,12.88-4.29,19.72-5.61M376.16,255.46c-1.19,1.22-3.28,2.62-5.23,4.78,1.62.12,2.96.46,3.74,2.02.8,1.54.13,8.03.24,10.53.13,2.43,1.6,2.94,3.53,4.95,1.92-.49,7.28-2.73,9.08-3.97-.16,1.99,2.36,4.23,3.85,4.67.99-1.09,2.08-1.69,3.54-3.05-1.43-.96-1.24-1.08-1.78-2.99-.42-1.83.1-8.77.15-11.74-1.13-1.72-3-3.78-4.9-5.21-1.35,1.23-3.16,2.88-5.29,5.11,1.58-.21,4.7.42,4.85,1.75.09,1.72.36,5.48,0,8.4-.35,2.94-8.27,1.59-8.38-.39-.17-2.04.41-7.9.45-10.67-1.12-1.72-1.78-2.66-3.86-4.2M380.11,232.62c.58-2.92,2.63-4.12,3.57-4.99,1.33,1.48,2.67,3.15,4.67,3.15,1.95.02,3.99-.89,4.62-1.71-1.61-1.3-5.29-5.17-6.03-5.9-1.86,1.04-9.95,5.23-10.63,10.08-.99,7.15,1.28,8.58,4.42,12.5,1.77,2.23,4.73,2.34,6.07,1.99,1.45-1,6.74-6.03,7.33-6.66.53-.62-.24-1.18-.9-.55-.65.6-.39.86-1.27.99-.9.15-4.5.75-6.6-.34-2.61-1.38-6.03-4.61-5.24-8.56M357.54,231.85c.19,4.82-2.32,9.88-5.04,12.17,4.71-1.22,5.33-4.04,7.91-7.35,1.43,2.11,4.07,4.65,6.01,5.75,1.36-.9,5.22-5.23,6.06-6.13-2.78-.74-8.15-3.58-9.49-6.58-1.06-2.23-.8-3.28.25-5.03.94,1.23,7.47,4.24,10.41-.78-3.21-1.17-6.1-3.28-7.08-4.98-.86.71-3.73,3.84-5.35,4.84-.37-1.72-3.01-3.58-5.16-3.96-.69.75-5.73,4.59-8.04,5.71-.71.34-.44,1.88.56,1.49.94-.41,2.49-1.59,4.3-2.45,2.08.81,4.45,2.93,4.66,7.29M356.61,254.99c-1.93.96,2.57,2.74,2.27,2.66-.07,5.09-1.09,13.42.66,16.07,1.08,1.62,3.54,2.68,5.19,2.04,1.58-.63,3.6-3.79,4.2-4.31,1.18-.88.17-1.82-.8-.91-.97.91-3.61.26-3.96-.65-.28-.95-.62-12.07-.15-12.3,0,0,3.18-.07,4.02-.04.67,0,.71-2.02.06-2.02-1.16-.02-3.71-.25-3.86-.71-.38-1.05.09-4.43.74-5.81.68-1.39-.61-2-1.13-.64-.52,1.45-3.86,4.95-7.24,6.62M338.39,258.33c1.08-1.65,1.76-1.98,2.63-1.98.78.05,3.8,2.12,3.64,3.52.15.91.19,2.8.17,4.73-2.26.28-3.85.53-6.39-1.61-.46-.37-.59-3.81-.06-4.67M339.74,265.79c1.66.93,2.5.35,5.07.07,0,1.62-.05,3.08-.06,3.86-1.14.81-2.54,1.52-4.14,2.32-1.28-1.05-3.14-1.94-.87-6.25M337.66,264.28c-1.39,1.32-3.89,4.73-3.84,7.26.04,2.58,1.28,5.07,2.77,6.46,2.56-1.78,4.16-4.24,8.4-5.87.53,1.98,1.93,2.28,3.58,3.54,1-1.08,4.6-5.52,5.4-6.29.8-.76.34-1.54-.8-.76-1.13.76-1.92.29-3.82-1.75.07-1.11-.13-10.16.31-10.66-1.74-1.86-3.33-4.4-5.37-4.21-2.98.25-6.76,5.43-7.7,6.78-.74.97.04,4.69.6,5.16.2.19.29.2.46.36M320.3,247.08c.09,2.45.99,23.49.72,26.42-.16,1.67,2.07,3.44,4.12,4.83.99-1.21,3.16-4.35,4.94-5.67,1.05-.87.32-1.43-.49-1.12-1.61.75-3.23.17-3.39-1.7-.15-1.87-.15-19.98,0-22.59-1.25,0-4.74-.07-5.91-.18M318.78,231.81c.09,8.61,3.51,9.33,7.43,11.59,3.71,2.1,9.93,1.67,14.6.44,1.77-.52,2.73-.62,2.67.91,0,.95,1.34.75,1.34.04s.06-7.92.06-8.72c0-.9-1.3-.77-1.3,0,0,1.21,0,1.56-1.18,3.28-3.21,4.75-11.25,4.56-15.55-1.25-1.47-1.98-2.81-4.62-1.11-5.12,1.69-.52,6.86.55,10.28.84,2.05.13,6.78.61,7.37.95.52.39,1.32.89,1.32-.14.05-1.01.05-4.33.05-5.35s-.77-.52-1.35-.16c-.58.41-5.62,1.25-7.64,1.6-2.03.38-8.28.88-9.93.32-1.68-.56-1.12-3.93.38-5.87,4.36-5.77,13.16-5.36,16.34-.57,1.1,1.67,1.1,2.06,1.1,3.32,0,.75,1.26.84,1.26,0,.08-.82.1-9.53.1-10.23s-1.28-.92-1.28,0c0,.64-1.4,1.01-2.78.64-2.73-.87-10.7.37-14.25,2.31-3.15,1.8-7.99,5.96-7.93,11.17M352.63,181.79c-1.62-.19-6.97.26-8.91.56-1.93.3-1.93,1.24-.32,1.43,1.6.17,1.91.5,2.76,2.66.77,2.17-3.09,12.02-4.05,14.34-1.13-1.69-5.23-10.7-5.23-11.92,0-.87,1.81-1.75,2.58-1.96,1.52-.47,1.48-1.51.34-1.74-3.21-.46-14.49-1.45-16.48-1.69-1.44-.13-2.1,1.54-.35,1.54,1.81.05,3.69-.49,5.66,2.41,2.28,3.27,9.43,18.64,11.14,25.11.84-1.35,7.98-22.04,8.39-24.24.51-2.14,2.02-4.23,4.12-4.85,2.16-.59,1.97-1.5.35-1.65M362.3,185.54l2.12-1.84v-2.95l-2.85-2.77-2.84,2.41.07,3.41,1.75,1.74h1.75ZM365.57,212.52l3.77-4.9c-2.74-.47-3.86-.98-5.77-3.16l.08-12.15-3.85-3.85-1.32.15-6.04,5.3c-.62.93,1,.93,1.81-.18l4.38,2.51.19,11.76c.34,1.41,1.5,2.77,3.24,4.51h3.51ZM390.62,191.68c-1.15,0-8.86.16-9.06-.28-.57-1.65-.71-3.66.61-6.46.66-1.39-.61-1.98-1.12-.57-.48,1.37-4.35,6.7-8.36,8.43-2.06.81,2.51,2.71,2.2,2.62-.02,5.14.72,12.85,1.81,15.94.68,1.84,2.77,4.83,4.21,3.92.93-.58,2.95-4.58,3.58-5.09,1.11-.9.02-2.45-.91-1.52-1.04.9-1.91-.51-2.19-1.45-.35-.91-1.29-12.21-.81-12.43,0,0,9.12-1.1,10.03-1.1.62,0,.65-2,0-2M404.64,213.62c-1.25.07-2.34.4-3.94,1.17-1.31-1.07-4.72-5.19-2.21-9.79-.35-.21-.71-.39-1.04-.6,2.32,1.3,5.02,2.43,7.15,3.12-.03,1.83-.08,3.49-.08,4.08,0,.78.05,1.41.12,2.03M404.61,206.39c-2.4-.86-7.14-3.09-8.86-4.51-.46-.36-.5-.57.06-1.46,1.09-1.62,2.34-3.04,3.21-2.98.75,0,5.57,2.58,5.41,3.94.17.96.2,2.98.18,5.02M407.55,218.7l4.88-5.34s-2.17-1.7-3.45-3.28c0-1.11,0-11.8.47-12.37-3.67-3.27-6.35-3.68-7.93-3.48-2.97.45-6.01,4.26-6.98,5.53-.7,1.01-.52,2.28,0,2.75.59.48,1.36.97,2.17,1.46-.14-.08-.27-.17-.41-.22-1.4,1.31-3.42,5.07-3.35,7.63.03,2.57,2.34,6.3,3.89,7.69,1.72-1.33,4.27-3.56,8.01-4.29.41,1.8,1.27,2.89,2.7,3.91M407.72,246.93c-1.26-.61-5.84-4.15-6.89-6.86-1.37-3.66-1.37-7.69,2.51-10.06,3.03,1.12,6.57,4.1,6.89,6.85.44,3.55-.59,7.77-2.5,10.07M411.84,245.49c1.33-2.41,3.29-6.31,3.17-9.28-.17-3.65-2.42-9.06-7.77-10.85-6.79,2.41-10.98,7.77-11.17,14.1-.13,3.7,3.03,11.34,9.54,11.39,2-1.93,4.12-3.97,6.23-5.36M418.25,263.95c-.8-.95-2.97-2.75-4.92-4.12-1.12.92-3.41,2.59-4.88,3.36-1.1-1.23-2.54-2.93-4.75-4.65-1.33.91-5.17,4.42-6.79,5.33,2.34.06,5.82.83,5.95,3.01.08,1.76-.13,12.75,0,14.76,1.43.3,3.12.16,5.2.04.1-1.56.07-14.22.1-15.76.7-.39,1.52-.78,1.93-1.14.8.59,3.25,3.41,4.67,4.17.97-.74,3.5-2.97,4.62-4.02,1.18-1.17-.09-1.92-1.12-.97M418.25,240.72c.88.26,2.47.5,4.11.62,1.03.13.69-1.59-.1-1.91-.8-.29-2.57-.63-3.66-.65-1.18,0-1.73,1.52-.35,1.95M422.4,235.62c-.85-.32-2.62-.64-3.75-.64s-1.72,1.59-.32,1.96c.89.25,2.54.54,4.12.61,1.08.1.73-1.6-.06-1.93M450.16,505.09c-2.17,10.63-5.83,20.46-12.23,29.61-4.47,6.49-6.29-6.12-2.44-18.33,5.48-2.18,10.95-6.42,14.66-11.28M444.07,507.23c-14.28,14.1-35.69,9-52.56,16.54-15.29,5.58-26.37,19.71-42.4,23.29-4.71,1.52-5.49,3.88-2.48,3.8,1.76-.05,11.53,10.15,27.16,2.29,5.22-2.63,21.44-11.67,24.18-12.18-8.78,8.36-13.18,15.83-21.03,20.25-4.8,2.69-24.36,9.7-43.87,5.91-8.64-1.69-15.3,6.29-13.09,6.11,4.62-1.23,9.82-.61,12.93,3.48,5.66,4.43,13.86,9.96,20.92,1.73,2.34-2.73,13.54-8.54,24.07,2.13-11.2-.58-10.08,19.55-31.3,17.19-7.86-.05-25.21-18.01-30.15-12.47-8.77,9.85,18.84,19.21,6.88,31.6-10.8,11.19-23.7-8.91-23.7-8.91,6.74,2.83,19.17,4.64,13.7-6.31-2.17-4.35-6.31-8.26-6.31-16.31-.95-4.01-25.66,31.82-42.01,15.64-6.42-6.36-19.43-20.31-31.22-25.62,31.21-2.66,35.96,9.84,37.45,11.84,9.98,13.47,19.21-.21,21.33-2.61,3.25-3.7,7.85-8.79,6.22-9.57-12.1-5.74-25.93-6.96-36.26-2.22,22.12-30.4,39.32-1.93,39.32-1.94,2.42,1.51-.62-18.02-22.49-19.1-13.66-.67-25.68,11.62-35.11,11.61-7.66-.01-30.89-15.7-36.35-29.62,13.52,10.11,30.75,15.91,41.49,9.5,20.19-12.04,45.63,6.11,46.84,3.95-5.65-4.42-18.5-21.64-53.17-11.82-13.46,7.73-19.13-5.73-27.39-5.96,14.05-12.47,23.8-6.13,28.71-5.75,1.17,0-5.87-5.78-10.79-6.3-38.32-3.99-62.6-14.52-62.6-14.52-.2,0,3.19-7.72,19.67-2.15,0,0-14.77-9.04-14.65-20.67.48-7.17,3.94-14.84-1.54-20.81,22.24-.91,6.45,30.1,22.06,38.1.33.13-4.6-7.41,2.35-13.26,3.23,9.11,11.17,13.82,16.75,15.29,1.31-.72,2.93-3.51,2.93-3.51-5.88-9.72-6.65-21.04-5.07-34.01l.24-.13c1.27.06,3.41,4.46,4.91,7.69,3.25,6.98,3.16,17.01,9.63,25.28,3.58,4.56,5.8,9.11,9.01,11.32,1.39-3.23.36-8.78.15-10.26-.72-5.27-4.03-14.5,4.98-22.64,4.21,12.16,9.93,8.63,10.71,14.46,1.07,8.17.72,6.87-.12,13.14.43,8.64,8.29,11.08,15.25,16.6,15.72,8.55,26.16,13.18,33,24.14,3.34-18.49-46.56-22.18-40.12-57.85-.67-14.25,1.78-15.44-8.32-24.14,20.02.59,30.93,33.45,32.02,39.45,2,11.02,8.69,11.59,17.88,25.97,1.32.49-16.43-38.29,4.74-71.49,0,0,7.13,17.25,3.77,28.56-2.03,6.81-.15,14.35.23,18.62.39,4.36-.87-15.74,14.25-26.12.94,7.6,8.22,19.37,1.32,31.99-8.4,15.35-9.01,9.83-9.14,28.71.76-.33,2.93-13.02,8.7-20.22,12.18-15.22,3.48-23.41,15.36-36.6.94,6.59,2.63,3.98,3.34,9.86,1.59,13.19-12.17,27.61-9.13,27.17,3.5-.5,9.13-3.54,11.02-13.55,0,0,5.07,9.14.43,12.18-8.4,5.51-10.14,11.45-8.84,18.11,6.74-8.05,15.94-16.96,14.35-28.41.76-6.92,8.25-9.72,9.75-25.78.25-2.67,2.91-5.9,5.57-7.31-1.17,9.02,5.85,18.35-2.13,29.4,1.82.97,8.56-8.61,18.41-5.12-19.78,3.56-14.01,24.99-29.16,34.91-4.57,2.99-3.79,6.35-5.15,6.73,13.53-.76,23.96-16.88,25.77-18.11,13.6-9.19,16.57-10.6,22.01-25.51,2.13-5.67.58-8.17,8.12-15.82,3.31,7.54-1.5,23.17-2.64,26.54-2.43,7.2-10.99,13.42-9.18,13.42,36.46-16.09,36-26.89,44.72-38.42,2.62-4.4,15.58-12.04,20.43-12.75-1.18,2.41-6.22,6.45-6.46,10.81-.44,8.06-3.04,12.97-7.12,19.44,2.27,2.81,6.61-5.31,11.07-1.23-5.89,1.95-8.51,8.51-13.08,12.36M410.68,495.79c1.06-3.78,1.06-6.38,1.54-9.72.22-1.43.25-1.26.31-2.46.02-.4,10.3,8.55,10.88,8.92-2.58,3.23-4.79,4.39-7.25,6.68-1.74-1.5-5.59-3.06-5.49-3.42M413.8,501.37c-4.75,4.18-7.85,5.66-6.82,3.58,1.16-2.31,2.02-4.27,2.66-6,.21-.57,4.16,2.41,4.16,2.41M460.4,460.93c-4.35,1.13-15.81,5.71-18.58,10.21,1.47-24.78-6.54-49.12-9.08-55-4.97-11.45,2.22,26.65,2.71,35.42.01.39-41.13-52.86-16.29-11.85,6.44,10.63,16.49,17.57,16.5,17.75.17,7.4-.33,12.84-1.73,16.81-2.53,2.02-56.02-71.18-26.45-20.48,3.67,6.29,25.11,25.31,24.94,25.7-1.36,2.89-3.77,7.09-7.1,10.19-.56-.56-12.34-9.24-12.42-9.77-.89-5.66-.93-11-7.92-7,0,0-26.35-30.68-14.15-9.18,5.33,9.41,8.83,10.44,10.26,12.12,0,0-4.09,5.54-5.4,11.43-.53,2.36-22.84-24.74-14.09-7.72,2.81,5.45,13.01,11.41,12.9,11.79-1.04,3.54-2.1,6.98-3.22,9.22-1.4,2.83-21,18.45-20.97,18.43,0,0,3.83-12.38,12.16-18.43,4.75-3.48,4.77-2.72,7.92-4.7-.07-1.83-1.83-4.82-4.11-5.6-2.86-1.01-12.14.67-12.14.67.87-4.63-3.19-14.64-3.14-25.64-3.5.35-9.62,5.75-11.11,8.82-1.07,18.22-5.03,12.76-8.74,25.88-4.03-5.5.28-13.4-3.67-18.55-5.43-7.08-6.25-11.85-7.06-20.56,1.27-.7,6.82-6.83,1.77-19.68-.82-20.2,8.2-27.92-7.93-42.05,1.35-.44,2.33-10.56,2.33-10.57,11.89,6.34,9.53-7.34,14.16-10.03,7.35-4.27,6.02-8.69,2.72-14.2,21.03,5.98-.95,20.36,8.57,20.67,6.9.21,11.53-1.54,14.53-6.18,3.19-4.91-.55-7.91,8.37-15.87.89-.8,3.26-6.1-3.81-7.56-1.55-.33.01-6.37.01-6.37-5.66,4.79-7.45,11.54-16.55,7.27-4.66-2.19-7.69-.04-9.6.88,0,0-.96-3.81,2.89-5.09,9.96-3.35,12.43-7.33,11.88-9.5-1.34-5.18-1.75,0-1.46-5.45.12-2.17,2.64-5.11,4.73-7.63,6.76-8.15,11.54-5.1,13.27-4.38,3.93-3.04,4.62-2.82,8.27-4.27,6.26-2.46,19.82,1.62,27.4,5.14,3.68,1.67,8.07,2.66,12.35,1.72-.04,2.21-1.59,3.4-3.13,3.84-2.37.74-5.19,0-5,1.73.1,1.01,3.35,1.19,5.37,1.74,11.23,3.07,25.77,13.13,16.22,11.01-1.13-.25,6.88,5.98,12.93,14.09l21.41,20.8c-.98,1.19-8.5.11-32.28-22.17-3.38,3.02,28.93,27.37,42.26,53.21-1.15.8-17.77-5.25-23.76-11.43-9.24-9.55-19.85-33.84-24.21-30.29-.52.2,17.56,28.35,26.49,45.05,4.51,8.45,8.22,20.56,8.53,29.68,1.43,44.97-5.34,41.52-5.34,41.52-10.53-35.44-15.46-76.6-30.83-95.59-6.14-7.59,16.43,33.22,17.4,70.01M477.01,219.95c-.09-.69-.24-1.75-.45-3.24-.32-2.32-7-3.67-11.71-1.61-6.6,2.88-23.12,12.32-29.16,10.54v-23.25c14.88,6.45,20.69.62,25.47.62,14.69,0,15.42,13.7,15.42,13.7.19,1.49.33,2.55.42,3.24M461.75,251.78c12.9-1.89,14.84,13.34,14.84,13.34h-.03c-3.17-2.52-9.56-3.67-13.88-.88-14.41,9.28-27.4,9.38-27.4,9.38v-23.25s2.74,4.87,26.46,1.41M430.93,299.02c-23.41,1.59-71.96-11.73-84.31-11.73-25.47,0-37.79,9.94-37.79,9.94,0,0,.03-115.62,0-119.78,0,0,33.47-15.69,57.82-6.71,29.82,11.01,64.28,6.13,64.28,6.13v122.14ZM333.96,317.06c.78,4.64-3.52,5.8-3.51,5.79,6.68,1.56,9.87-2.41,11.18-4.93,2.57,10.67-8.19,11.27-11.54,11.91,0,0,5.45,1.57,5.73,5.12.71,9.02,6.51,8.25,7.76,7.54-.2,1.09-1.99,6.53-8.52,1.62-1.11,1.09,1.78,2.78,2.35,7.25.74,5.66.56,10.91,7.09,14.37-4.01,3.19-8.73-5.12-9.14-4.12-.46,1.11,5.57,4.16-1.07,19.82-3.03-1.74-1.34-1.41-4.86-5.58-2.69-2.25-3.75-2.76-1.5.95,3.91,4.9,4.84,16.09,3.49,19.11-3.23-1.4-2.4-3.98-6.21-7.49-.35,1.5,1.17,8.92,5.1,12.47,6.81,6.14,9.21,13.56,9.34,15.02.54,5.58-1.22,12.93-1.87,20.13-3.26-.47-6.04-9.74-6.83-9.22-.96.63.41,9.07,6.57,14.83,2.98,8.71,1.78,13.38.99,13.7-1.05.45-4.36-8.9-6.17-7.28,8.76,22.29,2.63,30.05.31,36.92-1.81-7.04-2.73-12.31-5-20.28-4.77,3.75-5.92,9.31-11.75,14.39,0-9.09-5.26-31.03-9.42-36.15-.2-.23-7.53,19.67-10.87,28.53-4.34,11.47-5.01,25.82,0,37-10.82-15.38-11.98-44.03-2.65-47.89.81-2.05-.56-8.79-2.64-7.95-.6,3.3-.2,6.11-2.93,9.33-7.16-2.09-3.9-10.83-3.25-13.73,9.29-11.15,3.48-13.72,3.05-13.43-1.01,2.55-1.88,5.68-4.72,6.84-5.96-10.25-2.14-26.32,9.18-38.34.48-4.48-5.07,3.34-8.67,3.07-.94-8.65,2.19-23.64,18.18-24.19-3.05-.9-4.68-1.45-5.42-4,4.83-.72,19.98-1.87,17.49-13.83-1.44,1.43-1.9,3.58-5.84,5.99-2.66,1.62-5.55,1.76-7.05-.58,7.03-2.33,4.71-10.88-4.47-8.37-2.81.77-6.92-2.17-7.12-5.43,2.04,2.04,6.18.53,8.57-1.02,10.33-6.71,16.63,3,18.02,5.1.42,0,4.63-9.72-10.03-12.33-1.22-3.42-4.58-9.45-14.53-8.69-3.28-11.57-13.2-5.87-12.87-.63-10.55-7.76.18-17.56,4.44-19.07,2.95.24,2.3,9.59,7.48,8.01,1.25-.37-4.03-6.44-2.01-9.18,4.76-2.72,4.65,3.48,7,1.17,1.16-4.06,5.83-6.33,9.67-6.77,10.78-1.53,19.16,10.28,29.5,4.49M303.22,297.14s-15.87-8.61-34.49-9.85c-18.01-1.19-54.39,13.19-82.32,11.29v-122.75s31.85,4.23,44.94-.81c44.49-17.16,71.88,2.01,71.88,2.01v120.11ZM180.74,271.45h-15.16v-14.92h15.16v14.92ZM180.74,219.5h-15.16v-14.91h15.16v14.91ZM147.74,275.76c-17.79,0-17.79-26.06,0-26.06s17.21,26.06,0,26.06M147.74,223.68c-17.39,0-17.02-26.07,0-26.07s17.11,26.07,0,26.07M262.34,345.44c-3.17-5.42,3.79-10.59,3.79-10.59-.21,15.24,19.27,4.78,29.45,9.62,2.45,1.12,4.16,3.27,5.17,5.54-10.93-7.56-31.15,7.81-38.4-4.57M209.68,474.51c.08,5.22-.29,9.09,1.23,14.4,2.47,8.01,1.23,5.54-2.13,2.79-2.67-2.97-5.17-5.42-6.45-8.89-.32-2.47,1.66-2.6,7.36-8.29M170.45,366.78l-.3-.29c-.35,0-25.32,15.75-41.54,8.19,12.08-6.68,53.94-33.28,65.38-40.82,5.41,1.16,7.59-.78,9.31-1.99-4.38.27-18.87,2.53-11.54-10.44,2.81,11.63,23.15.93,30.45-.75,20.34-4.68,20.2,17.06,18.46,26.05-.65,3.35,6.24,5.73,9.62,5.25-5.83,14.36-15.79.82-16.97,6.3-.48,2.22-7.15,3.97-7.12,9.48.04,7.54,2.99,3.42,3.26,9.26.3,5.66-2.42,1.25-1.8,7.38.98,9.72,17.06-1.3,23.71,1.34,3.32,1.31,5.53,4.29,8.77,3.7.94-.78.52-4.46.37-5.77-.34-3.09-6.05-3.45-8.71-7.66-2.31-3.67,2.63-14.74,5.31-17.99,3.84,18.26,20.95,12.53,23.51,31.74,1.61,5.43-5.88,11.47.2,20.3-4.52,4.39-9.95,25.18-.49,34.94-1.61,4.42-3.71,14.62,4.7,20.58-2.83,6.03-2.18,13.4.2,20.89-5.24.02-4.2-29.38-35.59-30.31-.7-.22-.87,3.33.03,4.92,3.77,6.61,8.81,6.22,7.73,21.77-.36,5.32-3.49-.92-5.15-2.4-3.8-3.36-6.74-3.8-8.39-14.74-12.75,10-11.5,22.1-10.71,28.26,0,.01-2.82-7.67-6.03-15.55-.17-.42,12.95-16.21,15.04-19.96,26.48-47.67-17.1,15.41-17.19,15.2-2.35-5.43-4.4-10.11-5.78-11.6.33-.66,7.61-8.77,10.89-15.61,20.49-42.66-12.17,14.2-13.34,13.15-2.46-2.22-4.51-5-6.07-4-.37,6.55-1.93,5.66-1.48,12.35-3.42,4.56-10.74,11.72-15.87,15.27,0,0-1.28-11.84-.94-12.26,2.57-3.13,12.65-13.93,14.71-17.16,33.57-52.72-15.71,12.7-15.8,12.14-.35-2.08-3.05-5.53-5.92-8.46,0,0,10.88-14.83,13.56-20.34,20.42-41.99-16.41,18.61-16.82,18.39-.88-.46-.98-.45-2-.81-1.03-.35,1.12-12.09,2.55-19.17,2.76-13.99-4.65-2.71-6.67,19.46-1.89.3-6.49.77-8.23,2.36,1.12,5.92,2.52,1.36,5.01,7.05,2.97,6.81-4.14,17.98,2.05,26.15,2.39,3.16,2.52,2.63,2.06,4.7-3.8-.27-6.11-.35-8.51,2.94-4.67-21.24-4.53-31.46-3.44-53.05.49-9.81,3.71-24.65,2.24-24.94-1.4-.27-23.64,57-29.01,68.23-9.38-3.17,5.84-52.74,25.17-76.6,1.82-7.59-10.13,7.7-17.28,13.79-6.55,5.58-14.84,12.86-23.87,10.37,11.6-12.27,38.19-35.22,41.15-40.96,2.48-4.92-18.14,15.3-39.93,7.78,14.1-7.55,46.99-24.35,47.05-36.05M170.22,506.24c3.64,2.46,7.93,3.56,11.86,5.24,4.87,12.73.12,25.25-2.62,20.06-4.79-9.1-6.68-16.66-9.24-25.29M506,435.42l-.02-283.74c-227.94-21.98-399.98,0-399.98,0,0,0,0,283.72,0,283.78,18.16,192.34,198.31,214.93,200.02,214.62,32.17-5.81,183.21-36.17,199.98-214.67"/>
</svg>