<?xml version="1.0" encoding="utf-8"?>
<!-- Generator: Adobe Illustrator 28.1.0, SVG Export Plug-In . SVG Version: 6.00 Build 0)  -->
<svg version="1.1" id="Layer_1" xmlns="http://www.w3.org/2000/svg" xmlns:xlink="http://www.w3.org/1999/xlink" x="0px" y="0px"
	 viewBox="0 0 308 81" style="enable-background:new 0 0 308 81;" xml:space="preserve">
<style type="text/css">
	.st0{fill:#FFFFFF;}
</style>
<g>
	<path class="st0" d="M295.8,15.7L295.8,15.7L295.8,15.7c0-0.8,0-1.7,0-2.6v-0.2h-0.2c-0.2,0.1-1.4,0.1-2.6,0.1h-3.5
		c-0.7,0-1.4,0-2.2-0.1l0,0l0,0c-0.2,0.1-0.2,0.3-0.2,0.4c0,0.2,0,0.3,0.1,0.4l0.4,0.1c1,0.1,1,0.2,1,2.3V23c0,2,0,2.1-1,2.3
		l-0.5,0.1l0,0c-0.1,0.1-0.1,0.3-0.1,0.4s0.1,0.3,0.2,0.3l0,0l0,0c0.9,0,1.6-0.1,2.4-0.1s1.4,0,2.6,0.1l0,0l0,0
		c0.1-0.1,0.2-0.2,0.2-0.4c0-0.2,0-0.3-0.1-0.4l-0.7-0.1c-1-0.1-1-0.2-1-2.3v-2.7c0-0.4,0-0.4,0.5-0.4h1.3c0.7,0,1.2,0,1.4,0.1
		c0.3,0.1,0.4,0.3,0.5,0.6l0.2,0.8l0,0c0.2,0.2,0.6,0.2,0.7,0l0,0l0,0c0-0.2,0-0.5,0-0.7c0-0.3,0-0.7,0-1.1s0-0.8,0-1.2
		c0-0.3,0-0.6,0-0.8l0,0l0,0c-0.1-0.1-0.3-0.2-0.4-0.2c-0.2,0-0.3,0.1-0.4,0.1l-0.2,0.8c-0.1,0.5-0.2,0.5-0.4,0.6
		c-0.2,0.1-0.8,0.1-1.6,0.1h-1.3c-0.5,0-0.5,0-0.5-0.4v-4.1c0-0.6,0-0.6,0.4-0.6h1.2c0.8,0,1.4,0,1.8,0.1c0.8,0.2,1.1,0.8,1.2,1.7
		v0.1l0,0c0.1,0.1,0.2,0.1,0.3,0.1C295.6,15.9,295.8,15.9,295.8,15.7L295.8,15.7z M282.9,19.5c0-3.3-2.1-6.8-6.8-6.8c-4,0-7,3-7,7
		c0,3.3,2.4,6.7,7,6.7C280,26.3,282.9,23.4,282.9,19.5L282.9,19.5z M280.7,20.1c0,4-2.4,5.4-4.4,5.4c-4,0-5-4-5-6.4
		c0-4,2.4-5.4,4.5-5.4C279.4,13.6,280.7,17.1,280.7,20.1L280.7,20.1z M264.9,52.9c0,8.3,6.2,15.7,16.5,15.7
		c8.9,0,16.1-6.8,16.1-16.1c0-8.1-5.4-15.9-16.1-15.9C271.9,36.6,264.9,43.7,264.9,52.9L264.9,52.9z M269.5,51.4
		c0-10.1,6.2-13.4,11.1-13.4c8.8,0,12.2,8.2,12.2,15.9c0,9.1-5.3,13.3-10.8,13.3C272.9,67.2,269.5,58.3,269.5,51.4L269.5,51.4z
		 M259.3,13.7c0.1-0.1,0.2-0.2,0.1-0.4c0-0.1-0.1-0.3-0.2-0.3l0,0l0,0c-1.4,0.1-2.2,0.1-3.6,0l0,0l0,0c-0.1,0.1-0.2,0.2-0.2,0.3
		c0,0.2,0,0.3,0.1,0.4l0,0h0.4c0.4,0,0.6,0.1,0.7,0.2c-0.1,0.3-0.7,1.5-1.1,2.3l-0.1,0.2c-0.5,0.9-1,1.9-1.7,3
		c-0.5-0.9-1-1.9-1.5-2.9c-0.2-0.4-0.4-0.8-0.6-1.1c-0.1-0.3-0.6-1.3-0.6-1.4c0,0,0.1-0.1,0.7-0.2h0.3l0,0c0.1-0.1,0.1-0.3,0.1-0.5
		c0-0.1-0.1-0.2-0.2-0.3l0,0l0,0c-0.5,0-1.2,0.1-2.1,0.1c-0.9,0-1.6,0-2.2-0.1l0,0l0,0c-0.1,0.1-0.2,0.2-0.2,0.3
		c0,0.2,0,0.3,0.1,0.4l0,0l0.6,0.1c0.5,0.1,0.8,0.1,1.4,1.4l2.3,4.4c0.5,1,0.6,1.3,0.6,2.3v1c0,2.1,0,2.2-1,2.3l-0.7,0.1l0,0
		c-0.1,0.1-0.1,0.3-0.1,0.4s0.1,0.2,0.2,0.3l0,0l0,0c1,0,1.7-0.1,2.5-0.1c0.8,0,1.5,0,2.6,0.1l0,0l0,0c0.1,0,0.2-0.2,0.2-0.3
		c0-0.1,0-0.3-0.1-0.4l0,0l-0.8-0.1c-0.9-0.1-1-0.2-1-2.3v-1c0-1.4,0-1.6,0.9-3l1.2-2.1c0.1-0.2,0.2-0.4,0.3-0.5
		c0.8-1.3,1.3-2.3,2.1-2.4L259.3,13.7L259.3,13.7L259.3,13.7z M252.6,37.3c-0.8-0.2-3.2-0.7-5.9-0.7c-7,0-11.6,2.2-14.7,5.4
		c-2.9,3.1-4.2,7-4.2,11c0,4.1,1.5,7.7,4.3,10.5c3.6,3.6,8.6,5.1,14.1,5.1c2.5,0,5.8-0.6,8.3-1.2c0.9-0.2,1.7-0.4,2.3-0.4
		c0.2-0.1,0.2-0.4,0-0.6c-0.8-0.3-1.1-1.4-1.1-3.3v-2.6c0-2.4,0-3.7,2-3.9l0.7-0.1c0.3-0.3,0.3-1,0-1.2c-1.5,0.1-3.1,0.1-4.9,0.1
		c-2.7,0-5.3,0-6.6-0.1c-0.3,0.1-0.4,1,0,1.2l2,0.2c2.9,0.3,3,0.6,3,4.5V63c0,1.5-0.2,2.3-0.5,2.6c-0.5,0.8-2.2,1.4-5.1,1.4
		c-9.3,0-13.9-7-13.9-15.9c0-6.9,3.9-13.3,12.9-13.3c4.7,0,8.2,1.6,9.5,6.6c0.3,0.3,1.1,0.2,1.2-0.1c-0.4-2.8-0.7-5.2-0.7-6.7
		C254.9,37.8,253.4,37.5,252.6,37.3L252.6,37.3z M244.7,12.7L244.7,12.7v-0.1c-0.1-0.1-0.3-0.2-0.4-0.2c0,0-0.1,0-0.2,0l0,0l0,0
		c-0.2,0.4-0.3,0.5-1.4,0.5h-8c-0.9,0-1.2,0-1.3-0.5l0,0l0,0c-0.1-0.1-0.1-0.1-0.3-0.1c0,0-0.2,0-0.3,0.1h-0.1v0.1
		c-0.1,0.8-0.4,2-0.7,2.8v0.1v0.1c0.1,0.2,0.5,0.3,0.7,0.2l0,0l0,0c0.2-0.4,0.4-0.9,0.8-1.3c0.4-0.4,1.4-0.4,2.3-0.4h1.1
		c0.4,0,0.4,0,0.4,0.5V23c0,2.1-0.1,2.2-1.1,2.3l-0.7,0.1h-0.1c-0.1,0.1-0.2,0.2-0.2,0.4c0,0.1,0.1,0.3,0.2,0.4l0,0l0,0
		c1.2,0,1.9-0.1,2.7-0.1s1.4,0,2.5,0.1l0,0l0,0c0.2-0.1,0.2-0.3,0.2-0.4c0-0.2,0-0.3-0.1-0.4l-0.7-0.1c-1-0.1-1-0.2-1-2.3v-8.6
		c0-0.2,0-0.4,0-0.4s0.2,0,0.4,0h1.4c1,0,1.7,0.1,2.1,0.5c0.2,0.1,0.3,0.6,0.4,1.3l0,0l0,0c0.1,0.1,0.2,0.1,0.3,0.1
		c0.2,0,0.3-0.1,0.4-0.2l0,0l0,0C244.3,15,244.5,13.5,244.7,12.7L244.7,12.7z M227.1,23v-6.9c0-2.1,0.1-2.2,1-2.3h0.5l0,0
		c0.1-0.1,0.1-0.2,0.1-0.4c0-0.1,0-0.3-0.2-0.4l0,0l0,0c-0.9,0-1.6,0.1-2.4,0.1c-0.8,0-1.5,0-2.4-0.1l0,0l0,0
		c-0.2,0.1-0.2,0.3-0.2,0.4c0,0.2,0,0.3,0.1,0.4l0,0h0.5c1,0.1,1,0.2,1,2.3V23c0,2.1,0,2.2-1,2.3l-0.5,0.1l0,0
		c-0.1,0.1-0.1,0.3-0.1,0.4s0.1,0.3,0.2,0.3l0,0l0,0c1,0,1.6-0.1,2.4-0.1c0.8,0,1.4,0,2.4,0.1l0,0l0,0c0.2-0.1,0.2-0.3,0.2-0.4
		c0-0.2,0-0.3-0.1-0.4l-0.5-0.1C227.2,25.1,227.1,25,227.1,23L227.1,23z M223.9,66.7c-2-0.2-2.6-0.9-3.9-4.9l-6.3-18.6
		c-0.7-2-1.4-4.2-2-6.2c-0.1-0.3-0.4-0.4-0.7-0.4c-0.5,0.6-1.3,1.4-2.4,1.8c0.1,0.7-0.1,1.6-0.8,3.3l-4.7,12.5
		c-1.9,5.2-3.2,8.2-4.1,10.3c-0.6,1.7-1.7,2.2-2.8,2.3l-1.5,0.1c-0.3,0.2-0.2,1,0.1,1.2c1.2,0,2.9-0.1,4.4-0.1c2.2,0,3.6,0,4.8,0.1
		c0.4-0.2,0.4-0.9,0.1-1.2l-1.5-0.1c-1.1-0.1-1.3-0.4-1.3-0.9s0.3-1.8,1-3.8l1.6-4.9c0.3-1,0.6-1.1,1.8-1.1h7c1.4,0,1.6,0.1,1.9,1.2
		l2,6.3c0.4,1.1,0.6,1.9,0.6,2.5c0,0.5-0.6,0.7-1.6,0.8l-1.3,0.1c-0.3,0.2-0.3,1,0.1,1.2c1.3,0,3.1-0.1,5.3-0.1c2.1,0,3.7,0,5.6,0.1
		c0.2-0.2,0.3-0.9,0-1.2L223.9,66.7L223.9,66.7z M212,54.1h-5.7c-1.3,0-1.3,0-1-1.1l2.9-8c0.5-1.4,1-2.5,1.1-2.7h0.1
		c0.3,0.6,0.7,1.8,1.1,2.9l2.5,7.5C213.4,53.9,213.3,54.1,212,54.1L212,54.1z M213.9,15.6c0-0.7,0.3-2,2.1-2c1.7,0,2.2,1.1,2.5,2.1
		v0.1c0.1,0.1,0.2,0.1,0.3,0.1s0.3-0.1,0.4-0.2l0,0l0,0c0-0.8-0.2-1.9-0.4-2.4v-0.1h-0.1c-0.1,0-0.4,0-0.6-0.1
		c-0.5-0.1-1.2-0.3-1.8-0.3c-2.4,0-4.1,1.4-4.1,3.5c0,1.8,1.3,2.9,2.1,3.4l1.8,1.2c1.3,0.9,1.5,1.7,1.5,2.6c0,1-0.7,2.1-2.3,2.1
		c-2,0-2.8-1.5-3.2-2.8l0,0c-0.1-0.1-0.2-0.1-0.3-0.1s-0.3,0-0.4,0.2l0,0V23c0,0.9,0.3,2.3,0.5,2.8l0,0l0,0c0.4,0.2,1.4,0.7,3.1,0.7
		c2.5,0,4.3-1.5,4.3-3.7c0-1.5-0.8-2.8-2.5-3.8l-1.5-1C214.9,17.5,213.9,16.7,213.9,15.6L213.9,15.6z M209,26.1
		c0.1-0.1,0.1-0.2,0.1-0.3c0-0.1-0.1-0.2-0.2-0.2l0,0c-0.5,0-0.9-0.2-1.2-0.5c-1.3-1.1-2.4-2.7-3.8-5.1c-0.1-0.2-0.1-0.2-0.1-0.3
		c0.6-0.3,2.4-1.2,2.4-3.3c0-1.6-0.9-2.4-1.7-2.8c-1-0.5-2.2-0.6-3.3-0.6c-1.8,0-3.1,0.1-4.3,0.2h-0.1c-0.1,0.1-0.2,0.2-0.2,0.3
		c0,0.2,0,0.3,0.2,0.4l0,0l0.7,0.1c0.6,0.1,0.7,0.2,0.7,2.1V23c0,2,0,2.1-1,2.3l-0.5,0.1l0,0c-0.1,0.1-0.1,0.3-0.1,0.4
		s0.1,0.2,0.2,0.3l0,0l0,0c0.9,0,1.6-0.1,2.4-0.1c0.8,0,1.5,0,2.3,0.1l0,0l0,0c0.1-0.1,0.2-0.3,0.2-0.3c0-0.2,0-0.3-0.1-0.4l0,0
		l-0.4-0.1c-1-0.1-1-0.2-1-2.3v-2.4c0-0.3,0-0.3,0.8-0.3c0.7,0,1,0.2,1.2,0.6c0.3,0.4,0.6,1,1,1.5c0.3,0.5,0.7,1.1,0.9,1.4
		c1.3,1.9,2.3,2.5,4.1,2.5C208.5,26.2,208.8,26.2,209,26.1L209,26.1L209,26.1z M203.2,18.9c-0.5,0.4-1.3,0.5-1.9,0.5
		c-0.9,0-1.1,0-1.2-0.1c0-0.1,0-0.3,0-0.5v-4.5c0-0.4,0-0.5,1.1-0.5c2.2,0,2.9,1.5,2.9,2.8C204.1,17.7,203.8,18.5,203.2,18.9
		L203.2,18.9z M193.3,23.3L193.3,23.3L193.3,23.3c-0.1-0.3-0.3-0.4-0.5-0.4c-0.1,0-0.2,0-0.2,0.1v0.1c-0.6,1.1-1,1.7-1.3,1.8
		c-0.4,0.2-1,0.3-2.4,0.3c-1.6,0-2-0.2-2.2-0.4c-0.3-0.3-0.3-0.9-0.3-1.9v-2.7c0-0.4,0-0.4,0.5-0.4h1.1c0.7,0,1.2,0,1.4,0.1
		c0.3,0.1,0.4,0.2,0.5,0.6l0.2,0.8v0.1c0.1,0.1,0.2,0.1,0.4,0.1s0.3-0.1,0.4-0.2l0,0l0,0c0-0.2,0-0.4,0-0.7c0-0.4,0-0.7,0-1.1
		s0-0.8,0-1.2c0-0.3,0-0.6,0-0.8l0,0l0,0c-0.1-0.1-0.2-0.2-0.4-0.2s-0.3,0.1-0.4,0.1l-0.2,0.9c-0.1,0.4-0.2,0.5-0.4,0.6
		s-0.8,0.1-1.6,0.1h-1.1c-0.5,0-0.5,0-0.5-0.4v-3.9c0-0.6,0-0.6,0.4-0.6h1.4c0.8,0,1.4,0,1.8,0.1c0.9,0.2,1.1,0.8,1.3,1.6v0.1l0,0
		c0.1,0.1,0.2,0.1,0.3,0.1s0.3,0,0.4-0.2l0,0v-0.3c-0.1-1.1-0.2-2.1-0.3-2.4V13h-0.1c-0.2,0.1-1.4,0.1-2.6,0.1h-3.6
		c-0.7,0-1.4,0-2.3-0.1l0,0l0,0c-0.2,0.1-0.2,0.3-0.2,0.4c0,0.2,0,0.3,0.1,0.4l0.4,0.1c1,0.1,1,0.2,1,2.3V23c0,2.1-0.1,2.2-1.1,2.3
		l-0.7,0.1l0,0c-0.1,0.1-0.1,0.3-0.1,0.4s0.1,0.3,0.2,0.3l0,0l0,0c1.1,0,1.8-0.1,2.6-0.1h1.7c1.7,0,3.4,0,5.2,0.1h0.1V26
		C192.6,25.5,193.1,24,193.3,23.3L193.3,23.3z M180,13.7c0.1-0.1,0.1-0.3,0.1-0.4c0-0.1-0.1-0.2-0.2-0.3l0,0l0,0
		c-0.6,0-1.2,0.1-1.9,0.1c-0.8,0-1.5,0-2-0.1l0,0l0,0c-0.1,0.1-0.2,0.2-0.2,0.3c0,0.2,0,0.3,0.1,0.4l0,0h0.4
		c0.7,0.1,0.7,0.2,0.7,0.2c0,0.1,0,0.3-0.2,0.7c-0.3,0.8-1.3,3-1.8,4.3c-0.1,0.3-0.3,0.8-0.5,1.2c-0.4,0.9-0.8,1.9-1.2,2.7
		c-0.9-2.1-1.8-4.2-2.6-6.3c-0.6-1.4-0.9-2.4-0.9-2.6c0-0.1,0.2-0.1,0.8-0.2h0.3l0,0c0.1-0.1,0.1-0.2,0.1-0.4s-0.1-0.3-0.2-0.3l0,0
		l0,0c-0.9,0-1.5,0.1-2.3,0.1s-1.4,0-2-0.1l0,0l0,0c-0.1,0.1-0.2,0.2-0.2,0.3s0,0.3,0.1,0.4l0,0h0.4c0.8,0.1,1,0.4,1.4,1.5l3.4,8.4
		c0.4,1,0.7,1.9,0.9,2.5v0.1h0.1c0.1,0,0.2,0.1,0.3,0.1s0.2,0,0.3-0.1l0,0l0,0c0.3-1,1.3-3.3,2-5l1-2.4c0.9-2,1.6-3.6,2.1-4.4
		c0.2-0.4,0.5-0.6,0.9-0.6L180,13.7L180,13.7L180,13.7z M167.5,40.5c-3.5,2.7-5.8,7.1-5.8,12.3c0,6,2.9,10.2,6.6,12.7
		c3.4,2.3,7.4,3.1,11.5,3.1c3,0,6.3-0.7,7.3-1.1c0.5-0.2,1.1-0.4,1.6-0.5c0.7-0.9,1.9-3.9,2.2-6.3c-0.2-0.3-0.9-0.4-1.2-0.2
		c-1.1,2.7-3.7,6.6-9.7,6.6c-7.6,0-13.7-5.4-13.7-15.1c0-9.6,6-14.1,13.1-14.1c6.7,0,8.8,3.6,9.5,6.8c0.3,0.3,1,0.2,1.2-0.1
		c-0.4-2.8-0.6-5.7-0.6-6.8c-0.4,0-0.7,0-1.3-0.2c-2.2-0.6-5.7-1.1-8.2-1.1C175.1,36.6,170.8,37.9,167.5,40.5L167.5,40.5z M161.5,23
		v-6.9c0-2.1,0.1-2.2,1-2.3h0.5l0,0c0.1-0.1,0.1-0.2,0.1-0.4c0-0.1,0-0.3-0.2-0.4l0,0l0,0c-0.9,0-1.6,0.1-2.4,0.1
		c-0.8,0-1.5,0-2.4-0.1l0,0l0,0c-0.2,0.1-0.2,0.3-0.2,0.4c0,0.2,0,0.3,0.1,0.4l0,0h0.5c1,0.1,1,0.2,1,2.3V23c0,2.1,0,2.2-1,2.3
		l-0.5,0.1l0,0c-0.1,0.1-0.1,0.3-0.1,0.4s0.1,0.3,0.2,0.3l0,0l0,0c1,0,1.6-0.1,2.4-0.1c0.8,0,1.4,0,2.4,0.1l0,0l0,0
		c0.2-0.1,0.2-0.3,0.2-0.4c0-0.2,0-0.3-0.1-0.4l-0.5-0.1C161.6,25.1,161.5,25,161.5,23L161.5,23z M151.9,60.8V44.4
		c0-4.9,0.1-5.7,2.8-5.9l1.2-0.1c0.3-0.2,0.2-1-0.1-1.2c-2.3,0.1-3.9,0.1-5.7,0.1c-1.9,0-3.5,0-5.8-0.1c-0.3,0.1-0.4,1-0.1,1.2
		l1.2,0.1c2.7,0.2,2.8,1,2.8,5.9v16.5c0,4.9-0.1,5.5-2.8,5.9l-1.2,0.1c-0.3,0.3-0.2,1,0.1,1.2c2.3-0.1,3.9-0.1,5.8-0.1
		c1.8,0,3.4,0,5.7,0.1c0.3-0.1,0.4-1,0.1-1.2l-1.2-0.1C152,66.4,151.9,65.7,151.9,60.8L151.9,60.8z M154.3,13.7
		c0.1-0.1,0.1-0.2,0.1-0.4c0-0.1-0.1-0.3-0.2-0.3l0,0l0,0c-0.6,0-1.1,0.1-2,0.1c-0.7,0-1.3,0-2.3-0.1l0,0l0,0
		c-0.1,0-0.2,0.1-0.2,0.3s0,0.3,0.1,0.4l0,0h0.4c0.7,0.1,1,0.2,1.1,0.3c0.2,0.4,0.4,1.8,0.4,3.9V22c0,0.2,0,0.4,0,0.5
		c-0.7-0.7-1.4-1.5-2.2-2.4l-2.7-3c-1.9-2.1-3-3.5-3.2-4.2v-0.1h-0.1c-0.2,0-0.5,0.1-0.9,0.1c-0.3,0-1.4,0-2.2-0.1l0,0l0,0
		c-0.1,0.1-0.2,0.2-0.2,0.3c0,0.2,0,0.3,0.1,0.4l0,0h0.4c0.5,0.1,0.9,0.2,1.1,0.4c0.4,0.4,0.4,0.7,0.4,1.3v5.7c0,0.9,0,3.1-0.2,3.7
		c0,0.1-0.2,0.2-0.7,0.3l-0.6,0.1l0,0c-0.1,0.1-0.1,0.2-0.1,0.4c0,0.1,0.1,0.3,0.2,0.3l0,0h0.1c0.7,0,1.2-0.1,2-0.1
		c0.7,0,1.3,0,2.2,0.1l0,0l0,0c0.1-0.1,0.2-0.2,0.2-0.3c0-0.1,0-0.3-0.1-0.4v-0.1l-0.7-0.1c-0.5,0-0.8-0.1-0.9-0.3
		c-0.2-0.4-0.3-1.8-0.3-3.9v-4.2c0-0.3,0-0.7,0-1c0.3,0.3,0.8,0.9,1.3,1.5c0.3,0.4,0.6,0.7,0.8,0.9l4.5,5.1c1.5,1.7,2.2,2.5,2.5,2.9
		v0.1h0.1c0.3,0,0.4-0.1,0.5-0.3l0,0l0,0c0-0.2-0.1-1-0.1-3.4v-4.9c0-1,0-3,0.3-3.6c0,0,0.3-0.2,1-0.3L154.3,13.7L154.3,13.7
		L154.3,13.7z M137,13.7c0.1-0.1,0.1-0.3,0.1-0.4c0-0.1-0.1-0.2-0.2-0.3l0,0l0,0c-0.7,0-1.2,0.1-2,0.1c-0.7,0-1.5,0-2.2-0.1l0,0l0,0
		c-0.1,0.1-0.2,0.2-0.2,0.3s0,0.3,0.1,0.4l0,0h0.5c0.4,0,0.7,0.2,0.8,0.3c0.2,0.4,0.3,1.8,0.3,3.9v2.2c0,2.3-0.6,5-3.7,5
		c-2.6,0-3.8-1.6-3.8-5V16c0-2,0.1-2.2,1-2.3h0.5l0,0c0.1-0.1,0.1-0.2,0.1-0.4c0-0.1-0.1-0.3-0.2-0.4l0,0l0,0
		c-0.9,0-1.6,0.1-2.4,0.1c-0.8,0-1.5,0-2.4-0.1l0,0l0,0c-0.1,0.1-0.2,0.2-0.2,0.4s0,0.3,0.1,0.4l0,0h0.5c1,0.1,1,0.2,1,2.3v4.5
		c0,2.3,0.5,3.8,1.6,4.7c0.8,0.7,2.1,1.1,3.7,1.1c1.5,0,3-0.6,3.8-1.5c0.9-1,1.4-2.5,1.4-4.7V18c0-1,0-3.3,0.3-3.9
		c0.1-0.2,0.4-0.3,0.8-0.4L137,13.7L137,13.7L137,13.7z M114.8,38.4c0.3-0.2,0.2-1-0.1-1.2c-2,0.1-3.6,0.1-5.4,0.1
		c-2,0-3.6-0.1-5.8-0.1c-0.3,0.1-0.4,1-0.1,1.2l1.2,0.1c2.4,0.2,2.7,1,2.7,5.8V61c0,4.9-0.1,5.3-2.7,5.8l-0.8,0.1
		c-0.3,0.3-0.2,1,0.1,1.2c1.8,0,3.4-0.1,5.4-0.1c1.8,0,3.4,0,5.9,0.1c0.3-0.1,0.4-1,0.1-1.2l-1.3-0.1c-2.6-0.3-2.8-0.9-2.8-5.8v-6.5
		c0-1.4,0.1-1.5,2.3-1.5h13.2c2.2,0,2.3,0.1,2.3,1.5V61c0,4.9,0,5.3-2.8,5.8l-0.9,0.1c-0.3,0.3-0.2,1,0.1,1.2c2-0.1,3.7-0.1,5.6-0.1
		c1.8,0,3.4,0,5.6,0.1c0.3-0.1,0.4-1,0.1-1.2l-1.1-0.1c-2.7-0.3-2.8-0.9-2.8-5.8V44.3c0-4.9,0.1-5.6,2.8-5.8l1-0.1
		c0.3-0.2,0.2-1-0.1-1.2c-2.1,0.1-3.7,0.1-5.5,0.1c-1.9,0-3.5,0-5.6-0.1c-0.3,0.1-0.4,1-0.1,1.2l0.9,0.1c2.7,0.3,2.8,1,2.8,5.8v5.3
		c0,1.4-0.1,1.5-2.3,1.5h-13.2c-2.2,0-2.3,0-2.3-1.5v-5.3c0-4.9,0.1-5.6,2.8-5.8L114.8,38.4L114.8,38.4z M113,23.3L113,23.3
		L113,23.3c-0.1-0.3-0.3-0.4-0.5-0.4c-0.1,0-0.2,0-0.2,0.1v0.1c-0.6,1.1-1.1,1.7-1.3,1.8c-0.4,0.2-1,0.3-2.4,0.3
		c-1.6,0-2-0.2-2.2-0.4c-0.3-0.3-0.3-0.9-0.3-1.9v-2.7c0-0.4,0-0.4,0.5-0.4h1.1c0.7,0,1.2,0,1.4,0.1c0.3,0.1,0.4,0.2,0.5,0.6
		l0.2,0.8v0.1c0.1,0.1,0.2,0.1,0.4,0.1c0.2,0,0.3-0.1,0.4-0.2l0,0l0,0c0-0.2,0-0.4,0-0.7c0-0.4,0-0.7,0-1.1s0-0.8,0-1.2
		c0-0.3,0-0.6,0-0.8l0,0l0,0c-0.1-0.1-0.2-0.2-0.4-0.2c-0.2,0-0.3,0.1-0.4,0.1l-0.2,0.9c-0.1,0.4-0.2,0.5-0.4,0.6
		c-0.2,0.1-0.8,0.1-1.6,0.1h-1.1c-0.5,0-0.5,0-0.5-0.4v-3.9c0-0.6,0-0.6,0.4-0.6h1.4c0.8,0,1.4,0,1.8,0.1c0.9,0.2,1.1,0.8,1.3,1.6
		v0.1l0,0c0.1,0.1,0.2,0.1,0.3,0.1c0.1,0,0.3,0,0.4-0.2l0,0v-0.3c-0.1-1.1-0.2-2.1-0.3-2.4V13h-0.1c-0.2,0.1-1.4,0.1-2.6,0.1H105
		c-0.7,0-1.4,0-2.3-0.1l0,0l0,0c-0.2,0.1-0.2,0.3-0.2,0.4c0,0.2,0,0.3,0.1,0.4l0.4,0.1c1,0.1,1,0.2,1,2.3V23c0,2.1-0.1,2.2-1.1,2.3
		l-0.7,0.1l0,0c-0.1,0.1-0.1,0.3-0.1,0.4s0.1,0.3,0.2,0.3l0,0l0,0c1.1,0,1.8-0.1,2.6-0.1h1.7c1.7,0,3.4,0,5.2,0.1h0.1V26
		C112.3,25.5,112.8,24,113,23.3L113,23.3z M96.8,23v-6.9c0-2.1,0.1-2.2,1-2.3h0.4h0.1c0.1-0.1,0.1-0.2,0.1-0.4c0-0.1,0-0.3-0.2-0.4
		l0,0l0,0c-0.9,0-1.6,0-2.3,0c-0.8,0-1.5,0-2.3-0.1l0,0l0,0c-0.2,0.1-0.2,0.3-0.2,0.4c0,0.2,0,0.3,0.1,0.4l0.4,0.1
		c1,0.1,1,0.2,1,2.3v2.2c0,0.5,0,0.5-0.8,0.5h-5.5c-0.8,0-0.8,0-0.8-0.5v-2.2c0-2.1,0.1-2.2,1-2.3h0.4h0.1c0.1-0.1,0.1-0.2,0.1-0.4
		c0-0.1,0-0.3-0.2-0.4l0,0l0,0c-0.9,0-1.6,0-2.3,0c-0.5,0-0.9,0-1.4,0c-0.3,0-0.6,0-1,0l0,0l0,0c-0.2,0.1-0.2,0.3-0.2,0.4
		c0,0.2,0,0.3,0.1,0.4l0,0h0.5c0.8,0.1,1,0.2,1,2.3V23c0,2,0,2.1-1,2.3h-0.3l0,0c-0.1,0.1-0.1,0.3-0.1,0.4s0.1,0.3,0.2,0.3l0,0l0,0
		c0.3,0,0.5,0,0.8,0c0.5,0,0.9,0,1.5,0c0.7,0,1.3,0,2.4,0.1l0,0l0,0c0.2-0.1,0.2-0.3,0.2-0.4c0-0.2,0-0.3-0.1-0.4l-0.6-0.1
		c-0.9-0.1-1-0.2-1-2.3v-2.7c0-0.5,0-0.5,0.8-0.5h5.5c0.8,0,0.8,0,0.8,0.5V23c0,2.1,0,2.1-1.1,2.3l-0.4,0.1l0,0
		c-0.1,0.1-0.1,0.3-0.1,0.4s0.1,0.2,0.2,0.3l0,0l0,0c0.9,0,1.6-0.1,2.3-0.1c0.8,0,1.4,0,2.3,0.1l0,0l0,0c0.2-0.1,0.2-0.3,0.2-0.4
		c0-0.2,0-0.3-0.1-0.4l-0.5-0.1C96.9,25.1,96.8,25,96.8,23L96.8,23z M81,12.7L81,12.7v-0.1c-0.1-0.1-0.3-0.2-0.4-0.2
		c0,0-0.1,0-0.2,0l0,0l0,0C80.1,13,80,13,79,13h-8c-0.9,0-1.2,0-1.3-0.5l0,0l0,0c-0.1-0.1-0.1-0.1-0.3-0.1c0,0-0.2,0-0.3,0.1H69v0.1
		c-0.1,0.8-0.4,2-0.7,2.8v0.1v0.1c0.1,0.2,0.5,0.3,0.7,0.2l0,0l0,0c0.2-0.4,0.4-0.9,0.8-1.3c0.4-0.4,1.4-0.4,2.3-0.4h1.1
		c0.4,0,0.4,0,0.4,0.5V23c0,2.1-0.1,2.2-1.1,2.3l-0.7,0.1h-0.1c-0.1,0.1-0.2,0.2-0.2,0.4c0,0.1,0.1,0.3,0.2,0.4l0,0l0,0
		c1.2,0,1.9-0.1,2.7-0.1c0.8,0,1.4,0,2.5,0.1l0,0l0,0c0.1-0.1,0.2-0.2,0.2-0.4c0-0.2,0-0.3-0.1-0.4l-0.4-0.1c-1-0.1-1-0.2-1-2.3
		v-8.6c0-0.2,0-0.4,0-0.4s0.2,0,0.4,0h1.4c1,0,1.7,0.1,2.1,0.5c0.2,0.1,0.3,0.6,0.4,1.3l0,0l0,0c0.1,0.1,0.2,0.1,0.3,0.1
		c0.2,0,0.3-0.1,0.4-0.2l0,0l0,0C80.7,15,80.8,13.5,81,12.7L81,12.7z M67.9,52.8c0,6,2.9,10.2,6.6,12.7c3.4,2.3,7.4,3.1,11.5,3.1
		c3,0,6.3-0.7,7.3-1.1c0.5-0.2,1.1-0.4,1.6-0.5c0.7-0.9,1.9-3.9,2.2-6.3c-0.2-0.3-0.9-0.4-1.2-0.2c-1.1,2.7-3.7,6.6-9.7,6.6
		c-7.6,0-13.7-5.4-13.7-15.1c0-9.6,6-14.1,13.1-14.1c6.7,0,8.8,3.6,9.5,6.8c0.3,0.3,1,0.2,1.2-0.1c-0.4-2.8-0.6-5.7-0.6-6.8
		c-0.4,0-0.7,0-1.3-0.2c-2.2-0.6-5.7-1.1-8.2-1.1c-4.8,0-9.1,1.3-12.5,3.9C70.2,43.3,67.9,47.6,67.9,52.8L67.9,52.8z M55.8,45V12.8
		c-25.9-2.5-45.4,0-45.4,0V45c2.1,21.8,22.5,24.4,22.7,24.4C36.8,68.7,53.9,65.2,55.8,45L55.8,45z M54.7,44.8
		c-1.8,19.5-18.1,22.8-21.6,23.4c-0.2,0-19.6-2.4-21.6-23.4V13.9c0,0,18.6-2.4,43.1,0L54.7,44.8L54.7,44.8z M48.1,56.3
		c0.7-1,1.1-2.2,1.4-3.4c-0.4,0.6-1,1-1.7,1.3C47.4,55.6,47.6,57,48.1,56.3L48.1,56.3z M48.8,53.1c0.5-0.4,0.8-1.2,1.5-1.4
		c-0.5-0.5-1,0.5-1.3,0.1c0.5-0.7,0.8-1.3,0.8-2.2c0-0.5,0.6-1,0.7-1.2c-0.6,0.1-2,0.9-2.3,1.4c-1,1.3-0.9,2.5-5.1,4.4
		c-0.2,0,0.8-0.7,1-1.5c0.1-0.4,0.7-2.2,0.3-3c-0.9,0.9-0.7,1.2-0.9,1.8c-0.6,1.7-1,1.9-2.5,2.9c-0.2,0.1-1.4,2-2.9,2.1
		c0.2,0,0.1-0.4,0.6-0.8c1.7-1.1,1.1-3.6,3.3-4c-1.1-0.4-1.9,0.7-2.1,0.6C40.8,51,40,50,40.1,49c-0.3,0.2-0.6,0.5-0.6,0.8
		c-0.2,1.8-1,2.1-1.1,2.9c0.3,1.3-0.8,2.3-1.6,3.3c-0.1-0.8,0-1.4,1-2.1c0.5-0.3,0-1.4,0-1.4c-0.2,1.2-0.8,1.5-1.2,1.6
		c-0.3,0,1.2-1.6,1-3.1c-0.1-0.7-0.3-0.4-0.4-1.1c-1.3,1.5-0.4,2.4-1.7,4.2c-0.7,0.8-0.9,2.3-1,2.3c0-2.1,0.1-1.5,1-3.3
		c0.8-1.4,0-2.8-0.2-3.6c-1.7,1.2-1.6,3.5-1.6,3s-0.3-1.3,0-2.1c0.4-1.3-0.4-3.2-0.4-3.2c-2.4,3.8-0.4,8.2-0.5,8.1
		c-1-1.6-1.8-1.7-2-3c-0.1-0.7-1.4-4.4-3.6-4.5c1.1,1,0.9,1.1,0.9,2.7c-0.7,4,4.9,4.5,4.6,6.6c-0.8-1.2-2-1.8-3.7-2.7
		c-0.8-0.6-1.7-0.9-1.7-1.9c0.1-0.7,0.1-0.6,0-1.5c-0.1-0.7-0.7-0.3-1.2-1.6c-1,0.9-0.6,2-0.6,2.6c0,0.2,0.1,0.8,0,1.2
		c-0.4-0.3-0.6-0.8-1-1.3c-0.7-0.9-0.7-2.1-1.1-2.9c-0.2-0.4-0.4-0.9-0.6-0.9l0,0c-0.2,1.5-0.1,2.8,0.6,3.9c0,0-0.2,0.3-0.3,0.4
		c-0.6-0.2-1.5-0.7-1.9-1.7c-0.8,0.7-0.2,1.5-0.3,1.5c-1.8-0.9,0-4.4-2.5-4.3c0.6,0.7,0.2,1.6,0.2,2.4c0,1.3,1.7,2.3,1.7,2.3
		c-1.9-0.6-2.3,0.2-2.2,0.2c0,0,2.8,1.2,7.1,1.7c0.6,0.1,1.4,0.7,1.2,0.7c-0.6,0-1.7-0.8-3.3,0.7c0.9,0,1.6,1.6,3.1,0.7
		c3.9-1.1,5.4,0.8,6,1.3c-0.1,0.2-3-1.8-5.3-0.4c-1.2,0.7-3.2,0.1-4.7-1.1c0.6,1.6,3.3,3.4,4.1,3.4c1.1,0,2.4-1.4,4-1.3
		c2.5,0.1,2.8,2.3,2.6,2.2c0,0-2-3.2-4.5,0.2c1.2-0.5,2.7-0.4,4.1,0.3c0.2,0.1-0.3,0.7-0.7,1.1c-0.2,0.3-1.3,1.8-2.4,0.3
		c-0.2-0.2-0.7-1.6-4.3-1.3c1.3,0.6,2.8,2.2,3.5,2.9c1.9,1.8,4.7-2.2,4.8-1.8c0,0.9,0.5,1.4,0.7,1.9c0.6,1.2-0.8,1-1.6,0.7
		c0,0,1.5,2.3,2.7,1c1.4-1.4-1.8-2.5-0.8-3.6c0.6-0.6,2.5,1.4,3.4,1.4c2.4,0.3,2.3-2,3.6-2c-1.2-1.2-2.5-0.6-2.7-0.2
		c-0.8,0.9-1.7,0.3-2.4-0.2c-0.4-0.5-0.9-0.5-1.5-0.4c-0.2,0,0.5-0.9,1.5-0.7c2.2,0.4,4.4-0.4,5-0.7c0.9-0.5,1.4-1.3,2.4-2.3
		c-0.3,0.1-2.2,1.1-2.7,1.4c-1.8,0.9-2.9-0.3-3.1-0.3c-0.3,0-0.3-0.3,0.3-0.4c1.8-0.4,3.1-2,4.8-2.6C44.8,54.2,47.2,54.7,48.8,53.1
		L48.8,53.1z M45.2,50.7c-0.1,0.4-0.1,0.7-0.2,1.1c0,0,0.4,0.2,0.6,0.4c0.3-0.3,0.5-0.4,0.8-0.8c-0.1,0-1.2-1.1-1.2-1
		C45.2,50.6,45.2,50.6,45.2,50.7L45.2,50.7z M45.4,52.5c0,0-0.4-0.3-0.5-0.3c-0.1,0.2-0.2,0.4-0.3,0.7
		C44.5,53.1,44.8,52.9,45.4,52.5L45.4,52.5z M50.7,47.9c-0.1-4.2-2.7-8.8-2-7.9c1.7,2.2,2.3,6.8,3.5,10.9c0,0,0.8,0.4,0.6-4.7
		c0-1-0.5-2.4-1-3.4c-1-1.9-3.1-5.1-3-5.1c0.5-0.4,1.7,2.4,2.7,3.4c0.7,0.7,2.6,1.4,2.7,1.3c-1.5-2.9-5.2-5.7-4.8-6
		c2.7,2.5,3.6,2.7,3.7,2.5l-2.4-2.4c-0.7-0.9-1.6-1.6-1.5-1.6c1.1,0.2-0.6-0.9-1.8-1.3c-0.2-0.1-0.6-0.1-0.6-0.2
		c0-0.2,0.3-0.1,0.6-0.2c0.2-0.1,0.4-0.2,0.4-0.4c-0.5,0.1-1,0-1.4-0.2c-0.9-0.4-2.4-0.9-3.1-0.6c-0.4,0.2-0.5,0.1-0.9,0.5
		c-0.2-0.1-0.7-0.4-1.5,0.5c-0.2,0.3-0.5,0.6-0.5,0.9c0,0.6,0,0,0.2,0.6c0.1,0.2-0.2,0.7-1.3,1.1c-0.4,0.1-0.3,0.6-0.3,0.6
		c0.2-0.1,0.6-0.3,1.1-0.1c1,0.5,1.2-0.3,1.9-0.8c0,0-0.2,0.7,0,0.7c0.8,0.2,0.5,0.8,0.4,0.9c-1,0.9-0.6,1.2-1,1.8
		c-0.3,0.5-0.9,0.7-1.6,0.7c-1.1,0,1.4-1.7-1-2.3c0.4,0.6,0.5,1.1-0.3,1.6c-0.5,0.3-0.3,1.9-1.6,1.1c0,0-0.1,1.2-0.3,1.2
		c1.8,1.6,0.8,2.5,0.9,4.8c0.6,1.5-0.1,2.2-0.2,2.2c0.1,1,0.2,1.5,0.8,2.3c0.4,0.6,0,1.5,0.4,2.1c0.4-1.5,0.9-0.9,1-2.9
		c0.2-0.3,0.9-1,1.3-1c0,1.3,0.5,2.4,0.4,2.9c0,0,1.1-0.2,1.4-0.1c0.3,0.1,0.5,0.4,0.5,0.6c-0.4,0.2-0.4,0.1-0.9,0.5
		c-0.9,0.7-1.4,2.1-1.4,2.1s2.2-1.8,2.4-2.1c0.1-0.3,0.2-0.6,0.4-1c0,0-1.1-0.7-1.5-1.3c-1-1.9,1.5,1.1,1.6,0.9
		c0.2-0.7,0.6-1.3,0.6-1.3c-0.2-0.2-0.6-0.3-1.2-1.4c-1.4-2.4,1.6,1,1.6,1c0.8-0.5,0.8,0.2,0.9,0.8c0,0.1,1.3,1,1.4,1.1
		c0.4-0.4,0.7-0.8,0.8-1.2c0,0-2.4-2.2-2.8-2.9c-3.4-5.8,2.7,2.6,3,2.3c0.2-0.5,0.2-1.1,0.2-1.9c0,0-1.1-0.8-1.9-2
		c-2.8-4.7,1.9,1.4,1.8,1.3c-0.1-1-0.9-5.3-0.3-4c0.3,0.7,1.2,3.4,1,6.2C48.9,48.5,50.2,48,50.7,47.9L50.7,47.9z M52.5,20.1
		c0,0.2,0,0.3,0.1,0.4C52.5,20.4,52.5,20.3,52.5,20.1c0,0-0.1-1.6-1.7-1.6c-0.5,0-1.2,0.7-2.9-0.1V21c0.7,0.2,2.6-0.9,3.3-1.2
		C51.7,19.7,52.5,19.9,52.5,20.1L52.5,20.1z M47.8,24v2.6c0,0,1.5,0,3.1-1.1c0.5-0.3,1.2-0.2,1.6,0.1l0,0c0,0-0.2-1.7-1.7-1.5
		C48.1,24.5,47.8,24,47.8,24L47.8,24z M37.7,28.2c1.4,0,6.9,1.5,9.6,1.3V15.6c0,0-3.9,0.6-7.3-0.7c-2.8-1-6.6,0.8-6.6,0.8
		c0,0.5,0,13.6,0,13.6S34.8,28.2,37.7,28.2L37.7,28.2z M34.7,23.6c0.1,0,0.5,0,0.7,0c0,0.3,0,2.4,0,2.6s0.2,0.3,0.4,0.2
		c0.1,0,0.2,0,0.1,0.1c-0.2,0.2-0.4,0.5-0.6,0.6c-0.2-0.2-0.5-0.4-0.5-0.5C34.9,26.3,34.8,23.9,34.7,23.6L34.7,23.6z M35.5,20.6
		c0.4-0.2,1.3-0.4,1.6-0.3c0.2,0,0.3,0,0.3-0.1s0.1-0.1,0.1,0s0,1.1,0,1.2s-0.1,0.1-0.1,0s0-0.2-0.1-0.4c-0.4-0.5-1.4-0.6-1.9,0.1
		c-0.2,0.2-0.2,0.6,0,0.7s0.9,0,1.1,0c0.2,0,0.8-0.1,0.9-0.2c0.1,0,0.2-0.1,0.2,0s0,0.5,0,0.6s-0.1,0.1-0.2,0
		c-0.1,0-0.6-0.1-0.8-0.1c-0.4,0-1-0.2-1.2-0.1s0,0.4,0.1,0.6c0.5,0.7,1.4,0.7,1.8,0.1c0.1-0.2,0.1-0.2,0.1-0.4c0-0.1,0.1-0.1,0.1,0
		s0,0.9,0,1s-0.2,0.1-0.2,0c0-0.2-0.1-0.2-0.3-0.1c-0.5,0.1-1.2,0.2-1.7-0.1c-0.4-0.3-0.8-0.3-0.8-1.3
		C34.6,21.3,35.1,20.8,35.5,20.6L35.5,20.6z M38.4,16.4c-0.2,0.1-0.4,0.3-0.5,0.6c0,0.2-0.9,2.6-1,2.8c-0.2-0.7-1-2.5-1.3-2.9
		c-0.2-0.3-0.4-0.3-0.6-0.3c-0.2,0-0.1-0.2,0-0.2c0.2,0,1.5,0.1,1.9,0.2c0.1,0,0.1,0.1,0,0.2c-0.1,0-0.3,0.1-0.3,0.2
		s0.5,1.2,0.6,1.4c0.1-0.3,0.5-1.4,0.5-1.6c-0.1-0.2-0.1-0.3-0.3-0.3s-0.2-0.1,0-0.2c0.2,0,0.8-0.1,1-0.1
		C38.6,16.2,38.6,16.3,38.4,16.4L38.4,16.4z M39.8,16.4l-0.2,0.2h-0.2l-0.2-0.2V16l0.3-0.3l0.3,0.3L39.8,16.4L39.8,16.4z M40.3,19.1
		l-0.4,0.6h-0.4c-0.2-0.2-0.3-0.4-0.4-0.5v-1.3l-0.5-0.4c-0.1,0.1-0.3,0.1-0.2,0l0.7-0.6h0.1l0.4,0.4v1.4C39.9,19,40,19.1,40.3,19.1
		L40.3,19.1z M42.7,17.5c-0.1,0-1.1,0.1-1.1,0.1c-0.1,0,0.1,1.3,0.1,1.4s0.1,0.3,0.2,0.2c0.1-0.1,0.2,0.1,0.1,0.2
		c-0.1,0.1-0.3,0.5-0.4,0.6c-0.2,0.1-0.4-0.2-0.5-0.4c-0.1-0.4-0.2-1.2-0.2-1.8c0,0-0.5-0.2-0.3-0.3c0.5-0.2,0.9-0.8,1-1
		s0.2-0.1,0.1,0.1c-0.2,0.3-0.1,0.5-0.1,0.7c0,0,0.9,0,1,0C42.8,17.3,42.8,17.5,42.7,17.5L42.7,17.5z M41.5,21.9
		c-0.1,0.4,0.3,0.8,0.6,1c0.2,0.1,0.6,0.1,0.8,0c0.1,0,0.1,0,0.1-0.1c0.1-0.1,0.2,0,0.1,0.1c-0.1,0.1-0.7,0.6-0.8,0.8
		c-0.2,0-0.5,0-0.7-0.2c-0.4-0.4-0.6-0.6-0.5-1.4c0.1-0.6,1-1,1.2-1.1c0.1,0.1,0.5,0.5,0.7,0.7c-0.1,0.1-0.3,0.2-0.5,0.2
		s-0.4-0.2-0.5-0.4C41.8,21.5,41.6,21.6,41.5,21.9L41.5,21.9z M45.2,19.8l-0.6,0.6c-0.2-0.1-0.3-0.2-0.3-0.4
		c-0.4,0.1-0.7,0.3-0.9,0.5c-0.2-0.2-0.4-0.6-0.4-0.9s0.2-0.7,0.4-0.9l0,0c-0.1-0.1-0.2-0.1-0.2-0.2c-0.1-0.1-0.1-0.2,0-0.3
		c0.1-0.1,0.5-0.6,0.8-0.6c0.2,0,0.5,0,0.9,0.4c-0.1,0.1-0.1,1.3-0.1,1.4C45,19.6,45.2,19.8,45.2,19.8L45.2,19.8z M46.4,22.5
		c-0.2,0-0.4,0-0.5-0.1c-0.2,0-0.1-0.2,0-0.2s0.3,0,0.4,0.1C46.4,22.3,46.5,22.5,46.4,22.5L46.4,22.5z M46.3,22.9
		c-0.2,0-0.4,0-0.5-0.1c-0.2,0-0.1-0.2,0-0.2s0.3,0,0.4,0.1C46.4,22.8,46.5,23,46.3,22.9L46.3,22.9z M43.4,25.5
		c0.2-0.1,0.6-0.5,0.8-0.6c0.3,0.2,0.4,0.4,0.5,0.5c0.2-0.1,0.4-0.3,0.6-0.4c0.2,0.2,0.5,0.4,0.6,0.5c0.1-0.1,0.3,0,0.1,0.1
		c-0.1,0.1-0.4,0.4-0.5,0.5c-0.2-0.1-0.4-0.4-0.5-0.5c0,0-0.1,0.1-0.2,0.1c0,0.2,0,1.6,0,1.8c-0.2,0-0.4,0-0.6,0c0-0.2,0-1.5,0-1.7
		C44.1,25.6,43.7,25.5,43.4,25.5L43.4,25.5z M43.4,22.7c0-0.7,0.5-1.3,1.3-1.6c0.6,0.2,0.9,0.8,0.9,1.2c0,0.3-0.2,0.8-0.4,1.1
		c-0.2,0.2-0.5,0.4-0.7,0.6C43.7,24,43.3,23.1,43.4,22.7L43.4,22.7z M40.5,25.1c0.2-0.2,0.5-0.4,0.6-0.5c0.2,0.2,0.3,0.3,0.4,0.5
		c0,0.3-0.1,1-0.1,1.2s0.9,0.4,1,0c0-0.3,0-0.8,0-1s-0.4-0.2-0.6-0.2c0.2-0.3,0.4-0.4,0.6-0.6c0.2,0.2,0.4,0.4,0.6,0.6
		c0,0.3-0.1,1.1,0,1.3c0.1,0.2,0,0.2,0.2,0.3c-0.2,0.2-0.3,0.2-0.4,0.3c-0.2,0-0.5-0.3-0.4-0.5c-0.2,0.1-0.8,0.4-1,0.5
		c-0.2-0.2-0.4-0.3-0.4-0.6c0-0.3,0.1-1,0-1.2C40.8,25.1,40.7,25.1,40.5,25.1L40.5,25.1z M40,23.1c-0.2-0.1-0.5-0.4-0.7-0.7
		c-0.3,0.4-0.4,0.7-0.9,0.8c0.3-0.3,0.6-0.8,0.6-1.4c0-0.5-0.3-0.7-0.5-0.8c-0.2,0.1-0.4,0.2-0.5,0.3c-0.1,0-0.1-0.1-0.1-0.2
		c0.3-0.1,0.8-0.6,0.9-0.6c0.2,0,0.5,0.3,0.6,0.4c0.2-0.1,0.5-0.5,0.6-0.5c0.1,0.2,0.4,0.4,0.8,0.6c-0.3,0.6-1.1,0.2-1.2,0.1
		c-0.1,0.2-0.1,0.3,0,0.6c0.2,0.3,0.8,0.7,1.1,0.7C40.6,22.5,40.1,23,40,23.1L40,23.1z M39.1,24.8c0,0-0.5-0.2-0.3-0.3
		c0.4-0.2,0.8-0.6,0.8-0.8c0.1-0.2,0.2-0.1,0.1,0.1c-0.1,0.2-0.1,0.5-0.1,0.7c0,0.1,0.3,0.1,0.4,0.1c0.1,0,0.1,0.2,0,0.2
		s-0.5,0-0.5,0c-0.1,0,0,1.3,0,1.4s0.3,0.2,0.4,0.1c0.1-0.1,0.2,0,0.1,0.1c-0.1,0.1-0.3,0.4-0.5,0.5s-0.5,0-0.6-0.2
		C39,26.3,39.1,25.4,39.1,24.8L39.1,24.8z M38,26.8c-0.2-0.1-0.3-0.2-0.4-0.4c-0.5,0.2-0.7,0.5-1,0.7c-0.2-0.2-0.3-0.4-0.3-0.7
		c0-0.3,0.3-0.7,0.4-0.8c0,0,0,0-0.1,0c0-0.2-0.1-0.6,0-0.7c0.1-0.2,0.5-0.7,0.9-0.8c0.2,0,0.4,0.3,0.6,0.5c0,0.1,0,1.1,0,1.2
		c0.2,0.2,0.3,0.3,0.4,0.2c0.1-0.1,0.2,0,0.1,0.1C38.5,26.2,38.1,26.7,38,26.8L38,26.8z M37.5,25.6c0-0.2,0-0.4,0-0.5
		c0-0.2-0.3-0.4-0.4-0.4c-0.1,0-0.2,0-0.3,0.2c-0.1,0.1,0,0.5,0,0.5C37.1,25.6,37.3,25.6,37.5,25.6L37.5,25.6z M37,25.7
		c-0.3,0.5,0,0.6,0.1,0.7c0.2-0.1,0.3-0.2,0.5-0.3c0-0.1,0-0.3,0-0.4C37.2,25.8,37.1,25.8,37,25.7L37,25.7z M43.9,22.8
		c0.1,0.3,0.6,0.7,0.8,0.8c0.2-0.3,0.3-0.7,0.3-1.1c0-0.3-0.4-0.7-0.8-0.8C43.7,21.9,43.7,22.4,43.9,22.8L43.9,22.8z M43.9,19.9
		c0.2-0.1,0.3-0.1,0.4-0.1c0-0.1,0-0.1,0-0.2s0-0.3,0-0.5c-0.2-0.1-0.5-0.2-0.8-0.4c0,0,0.1,0,0.1,0.1
		C43.3,19.3,43.7,19.8,43.9,19.9L43.9,19.9z M43.3,18.5c0.2,0.2,0.7,0.4,1,0.5c0-0.2,0-0.5,0-0.6c0-0.2-0.5-0.4-0.6-0.4
		s-0.2,0.2-0.4,0.3C43.3,18.4,43.3,18.4,43.3,18.5L43.3,18.5z M33,31c-0.4,0-1,0.3-1.1,0.8c-0.3,0.3-0.3-0.4-0.8-0.1
		c-0.2,0.3,0.4,1,0.2,1c-0.6,0.2-0.5-0.9-0.8-0.9C30,32,28.8,33.1,30,34c0-0.6,1.1-1.2,1.5,0.1c1.1-0.1,1.5,0.6,1.7,1
		c1.7,0.3,1.2,1.4,1.1,1.4c-0.2-0.2-0.9-1.3-2-0.6c-0.3,0.2-0.7,0.3-1,0.1c0,0.4,0.5,0.7,0.8,0.6c1-0.3,1.3,0.7,0.5,0.9
		c0.2,0.3,0.5,0.2,0.8,0.1c0.4-0.3,0.5-0.5,0.7-0.7c0.3,1.4-1.4,1.5-2,1.6c0.1,0.3,0.3,0.4,0.6,0.5c-1.8,0.1-2.2,1.8-2.1,2.7
		c0.4,0,1-0.9,1-0.3c-1.3,1.4-1.7,3.2-1,4.4c0.3-0.1,0.4-0.5,0.5-0.8c0,0,0.7,0.3-0.3,1.5c-0.1,0.3-0.4,1.3,0.4,1.6
		c0.3-0.4,0.3-0.7,0.3-1.1c0.2-0.1,0.4,0.7,0.3,0.9c-1.1,0.4-0.9,3.7,0.3,5.4c-0.6-1.3-0.5-2.9,0-4.2c0.4-1,1.2-3.3,1.2-3.2
		c0.5,0.6,1.1,3.1,1.1,4.1c0.7-0.6,0.8-1.2,1.3-1.6c0.3,0.9,0.4,1.5,0.6,2.3c0.3-0.8,1-1.7,0-4.2c0.2-0.2,0.6,0.9,0.7,0.8
		c0.1,0,0.2-0.6-0.1-1.6C36.2,45,36,44.1,36.2,44c0.1-0.1,0.4,1,0.8,1c0.1-0.8,0.3-1.7,0.2-2.3c0-0.2-0.3-1-1.1-1.7
		c-0.4-0.4-0.6-1.2-0.6-1.4c0.4,0.4,0.3,0.7,0.7,0.9c0.2-0.3,0-1.6-0.4-2.2c-0.3-0.4-0.1-0.4,0.2-0.1c0.4,0.5,0.2,0.4,0.6,0.6
		c0.8-1.8,0.1-2.1,0.1-2.2c0-0.1,0.6,0.8,1,0.5c-0.7-0.4-0.7-1-0.8-1.6c-0.1-0.5-0.4-0.7-0.3-0.8c0.7,0.6,0.9-0.1,1-0.2
		c-0.1,0.1-0.8,0.2-0.9-0.9c0-0.4-0.7-0.6-0.7-0.6c0.4-0.1,1.6-0.1,1.3-1.4c-0.1,0.3-0.5,0.7-1.3,0.6c0,0,0.5-0.1,0.4-0.7
		C35.1,32.2,34.2,30.9,33,31L33,31z M35.1,32.6c-0.8,0.2-1.4,1-2.2,0.6c-0.1-0.1-0.4-0.1-0.3-0.3c0.2,0.1,0.4,0.1,0.6,0.2
		c0,0-0.5-0.4-0.1-0.9c-0.5,0.3-0.7,0.2-0.7,0.1c0-0.1,0.7-0.6,1.4-0.3C34.2,32.2,34.6,32.5,35.1,32.6L35.1,32.6L35.1,32.6z
		 M33.9,32.6c0,0.2-0.2,0.4-0.2,0.4l0.8-0.4c-0.2-0.1-0.6-0.4-0.8-0.4C33.6,32.2,33.9,32.4,33.9,32.6L33.9,32.6z M28.9,28.2
		c2.1,0.1,3.9,1.1,3.9,1.1V15.6c0,0-3.1-2.2-8.2-0.2c-1.5,0.6-5.1,0.1-5.1,0.1v13.9C22.7,29.7,26.8,28,28.9,28.2L28.9,28.2z
		 M27.4,20.8c0.4,0.1,1,0,1.2,0.6s-0.2,1.3-0.6,1.3s-0.8-0.1-1-0.1c-0.1,0-0.2,0-0.2,0.2c0,0.1-0.2,0.2-0.2,0s-0.1-0.8-0.1-1
		s0.2-0.2,0.2,0s0.1,0.3,0.3,0.5c0.1,0.1,0.9,0.3,1.2,0.1c0.2-0.2,0.2-0.6-0.1-0.7c-0.2-0.2-1.2-0.4-1.4-0.7c-0.3-0.5,0.2-0.9,0.4-1
		c0.3-0.2,0.7-0.1,0.9-0.1c0.1,0,0.3,0,0.3-0.1s0.1-0.1,0.1,0c0,0.4,0.1,0.2,0.1,0.6c0,0.2-0.1,0.2-0.2,0.1s-0.7-0.6-1.1-0.3
		C26.9,20.5,27,20.7,27.4,20.8L27.4,20.8z M28.5,23.6c-0.2,0.2-0.3,0.3-0.5,0.5c-0.1-0.1-0.3-0.3-0.5-0.4c0.3-0.1,0.4-0.3,0.5-0.4
		C28.2,23.5,28.4,23.6,28.5,23.6L28.5,23.6z M26,24.7c0.2-0.2,0.6-0.8,0.6-1s0.1-0.1,0.1,0.1s-0.1,0.8-0.1,0.9s0.4,0.1,0.5,0.1
		s0.1,0.2,0,0.2s-0.5,0.1-0.5,0.1c-0.1,0,0,0.8,0,0.9c0.2,0.1,0.3,0.2,0.5,0c0.1-0.1,0.2,0,0.1,0.1s-0.4,0.4-0.4,0.6
		c-0.1,0.2-0.4,0-0.6-0.1c-0.2-0.3-0.1-0.9-0.1-1.4C26.2,25,25.8,24.8,26,24.7L26,24.7z M25.7,23c-0.1,0.1-0.4-0.1-0.6-0.3
		c-0.2-0.3-0.1-1-0.1-1.6c0,0-0.1-0.1-0.2-0.2c-0.2,0.1-0.2,0.1,0.1,0s0.7-0.8,0.8-0.9c0.1-0.2,0.1,0,0.1,0.1
		c-0.2,0.3-0.1,0.7-0.1,0.8c0,0.1,0.6,0,0.7,0s0.1,0.2,0,0.2s-0.8,0.1-0.8,0.1s0.1,1.1,0.1,1.2c0,0,0.2,0.2,0.3,0.1
		c0.1-0.1,0.2,0,0.1,0.1C25.9,22.7,25.8,22.9,25.7,23L25.7,23z M23.2,24.7c0.3-0.2,0.4-0.4,0.6-0.5c0.2,0.2,0.2,0.5,0.4,0.6
		c0.2-0.2,0.5-0.3,0.6-0.5c0.1,0.1,0.4,0.2,0.4,0.7s0.1,1.2,0.1,1.4c0,0.1,0,0.1,0.2,0c0.1,0,0.2,0,0.1,0.1s-0.6,0.4-0.7,0.6
		c-0.2-0.3-0.2-0.5-0.1-0.8s0-0.9,0-1.1s-0.2-0.2-0.3-0.3c-0.1,0.1-0.2,0.1-0.3,0.2c0,0.2,0,1.6,0,1.8c-0.3,0-0.3,0-0.5,0
		c0-0.3,0-1.4,0-1.6C23.5,25,23.3,24.8,23.2,24.7L23.2,24.7z M21,25.5c0.1-0.9,1-1.3,1.3-1.5c0,0.3,0.4,0.7,0.6,0.9
		c-0.3,0.3-1,0.8-1.3,1c0.1,0.3,0.7,0.5,0.9,0.3c0.1-0.1,0.3-0.1,0.2,0.1c-0.2,0.2-0.4,0.6-0.5,0.8C21.7,26.9,20.9,26.4,21,25.5
		L21,25.5z M20.8,21.1c0.2-0.3,0.8-0.7,1.1-0.8c0.1,0.1,0.3,0.3,0.4,0.6c-0.2,0.1-0.3,0.3-0.4,0.4c-0.1-0.1-0.5-0.7-0.8-0.3
		c-0.2,0.2-0.3,0.9,0.2,1.4c0.3,0.2,0.6,0.3,0.9,0.2c-0.2,0.3-0.2,0.3-0.3,0.5c-0.5,0.1-0.8-0.1-1-0.3
		C20.3,22.4,20.4,21.7,20.8,21.1L20.8,21.1z M23.2,19.9c-0.1-0.1-0.1-0.3-0.3-0.2c-0.5,0.1-1,0.3-1.4,0.1c-0.4-0.3-0.8-0.3-0.8-1.3
		c0-0.6,0.5-1,0.8-1.2c0.4-0.2,1-0.1,1.3,0c0.1,0,0.2,0,0.3-0.2c0-0.1,0.2-0.1,0.2,0s0,1.2,0,1.3c0,0.1-0.2,0.1-0.2,0s0-0.4-0.1-0.6
		c-0.1-0.3-0.9-0.9-1.4-0.1c0,0-0.2,0.4-0.2,0.7c0,0.2,0.1,0.6,0.2,0.8c0.5,0.6,1.1,0.4,1.4-0.1c0.1-0.2,0.1-0.4,0.1-0.6
		c0-0.1,0.2-0.1,0.2,0s0,0.9,0,0.9c0,0.1,0.1,0.2,0.1,0.3C23.5,20,23.4,20.1,23.2,19.9L23.2,19.9z M23.6,20.6c0.2,0,0.4,0.4,0.6,0.6
		c-0.1,0.1-0.1,1.3-0.1,1.5c0,0.1,0.2,0.2,0.3,0.1c0.1-0.1,0.2,0,0.1,0.1s-0.5,0.4-0.6,0.6c-0.1-0.1-0.2-0.3-0.2-0.5
		c-0.3,0.1-0.5,0.2-0.6,0.4c-0.3-0.1-0.5-0.4-0.5-0.7c0-0.3,0.2-0.5,0.4-0.7l-0.1-0.1c-0.1-0.1-0.1-0.5-0.1-0.6
		C22.9,21,23.3,20.6,23.6,20.6L23.6,20.6z M26,17.4c-0.1,0.1-0.4,0.3-0.5,0.4c-0.1-0.1-0.3-0.3-0.4-0.4c0,0-0.1,0.1-0.2,0.1
		c0,0.2,0,1.7,0,1.9c-0.2,0-0.4,0-0.5,0c0-0.2,0-1.4,0-1.6s-0.2-0.3-0.5-0.3c0.2-0.2,0.5-0.4,0.6-0.5c0.2,0.2,0.4,0.2,0.5,0.3
		c0.2-0.1,0.4-0.3,0.6-0.4C25.7,17,25.9,17.3,26,17.4C26,17.2,26.1,17.3,26,17.4L26,17.4z M28.2,18.9c-0.1,0.1-0.4,0.4-0.6,0.4
		c-0.7,0-1.5-0.5-1.4-1.4s0.9-1.3,1.2-1.3c0.4,0,0.4,0.3,0.6,0.5c-0.3,0.3-0.8,0.8-1.1,1.1C27,18.4,27.3,18.9,28.2,18.9
		C28.4,18.6,28.5,18.8,28.2,18.9L28.2,18.9z M30.8,17.3c-0.1,0.1-0.3,0.3-0.7,0.6h0.1c0.5,0.3,0.7,0.7,0.2,1.1
		c-0.3,0.2-0.7,0.5-1.2,0.5c-0.3,0-0.9-0.3-1-0.4c0.3-0.2,0.5-0.5,0.7-0.7c-0.3-0.2-0.6-0.6-0.4-0.9s0.7-0.7,1.2-0.7
		C30.4,16.8,30.6,17.2,30.8,17.3L30.8,17.3z M31.1,19.9l0.3,0.3v0.3l-0.2,0.2H31l-0.2-0.2v-0.4L31.1,19.9L31.1,19.9z M31.7,18.3
		c-0.7,0-0.5-0.3-0.4-0.3C31.9,18.1,31.8,18.3,31.7,18.3L31.7,18.3z M31.7,18.8c-0.7-0.1-0.5-0.3-0.4-0.3
		C31.9,18.5,31.8,18.8,31.7,18.8L31.7,18.8z M32,22.9l-0.3,0.3l-0.3,0.3c-0.2-0.2-0.3-0.2-0.3-0.4v-1.3l-0.3-0.2
		c-0.2,0.2-0.3,0.1-0.2-0.1l0.6-0.5h0.1l0.3,0.4v1.3C31.7,22.9,31.7,22.8,32,22.9L32,22.9z M29.4,26.2c0-0.3,0.2-0.5,0.4-0.8l0,0
		c-0.1-0.1-0.2-0.6-0.1-0.7c0.1-0.1,0.6-0.6,0.9-0.6c0.2,0,0.5,0.4,0.7,0.7c-0.1,0.1,0.1,1.3,0.1,1.5c0.1,0.1,0.3,0.2,0.4,0.1
		c0.1-0.1,0.2,0,0.1,0.1c-0.1,0.1-0.4,0.3-0.5,0.5c-0.1-0.1-0.4-0.2-0.5-0.4c-0.3,0.1-0.7,0.3-0.9,0.5
		C29.5,26.7,29.4,26.5,29.4,26.2L29.4,26.2z M28.9,22.3c-0.2-0.5,0.2-1,0.3-1.2c0.1-0.1,0.5-0.4,0.7-0.5c0.2,0.1,0.4,0.2,0.5,0.3
		c0,0.1-0.1,0.3-0.3,0.3c-0.3,0-0.6-0.1-0.7,0.1c-0.2,0.2,0,0.7,0.2,0.9c0.2,0.2,0.6,0.4,0.7,0.2c0.1-0.2,0.3-0.1,0.1,0.1
		c-0.1,0.1-0.3,0.4-0.4,0.6C29.6,23.1,29.1,22.9,28.9,22.3L28.9,22.3z M29.1,26.1l-0.3,0.3l-0.2,0.2c-0.2-0.2-0.3-0.2-0.4-0.4V25
		l-0.4-0.2c-0.2,0.1-0.3,0.1-0.2-0.1l0.6-0.5h0.1l0.4,0.5v1.2C28.9,26.1,28.8,26.1,29.1,26.1L29.1,26.1z M30,25.6
		c-0.4,0.3,0.1,0.7,0.2,0.8c0.1-0.1,0.3-0.1,0.5-0.2c0-0.1,0-0.1,0-0.2s0-0.2,0-0.3C30.3,25.7,30.2,25.7,30,25.6L30,25.6z
		 M30.6,25.5c0-0.2,0-0.4,0-0.5c0-0.2-0.5-0.4-0.5-0.4c-0.1,0-0.1,0.1-0.2,0.2c-0.1,0.1,0,0.4,0,0.4C30.2,25.5,30.4,25.5,30.6,25.5
		L30.6,25.5z M29.8,17.9c0.1-0.1,0.3-0.2,0.3-0.2c-0.2-0.2-0.5-0.4-0.7-0.4s-0.5,0.1-0.3,0.3c0.1,0.2,0.2,0.3,0.5,0.4
		C29.6,17.9,29.7,17.9,29.8,17.9L29.8,17.9z M29.6,18.3c-0.2,0.2-0.4,0.3-0.5,0.4c0.1,0.2,0.6,0.5,0.9,0.4c0.3-0.1,0.4-0.4,0.2-0.6
		C29.9,18.5,29.7,18.4,29.6,18.3L29.6,18.3z M26.8,18c0.1-0.1,0.5-0.5,0.7-0.7c-0.1-0.1-0.3-0.2-0.4-0.4
		C26.7,17.2,26.6,17.4,26.8,18L26.8,18z M23.7,22.7c0-0.1,0-0.1,0-0.2s0-0.3,0-0.5c-0.2,0.1-0.3,0.3-0.6,0.1
		c-0.4,0.3,0.2,0.5,0.3,0.6C23.5,22.8,23.6,22.7,23.7,22.7L23.7,22.7z M23.7,21.9c0-0.2,0-0.3,0-0.4c0-0.2-0.3-0.5-0.3-0.5
		c-0.1,0-0.3,0.2-0.4,0.3c-0.1,0.1-0.1,0.4,0.1,0.5C23.2,22.1,23.3,22.1,23.7,21.9L23.7,21.9z M21.9,24.5c-0.8,0.5-0.6,1-0.4,1.3
		c0.1-0.1,0.6-0.4,0.8-0.6C22.2,25.1,22,24.7,21.9,24.5L21.9,24.5z M17.2,26.4h1.7v-1.7h-1.7V26.4L17.2,26.4z M17.2,20.5h1.7v-1.7
		h-1.7V20.5L17.2,20.5z M15.2,23.9c-2,0-2,3,0,3C17.1,26.8,17.1,23.9,15.2,23.9L15.2,23.9z M15.2,18c-1.9,0-2,3,0,3
		C17.1,20.9,17.1,18,15.2,18L15.2,18z M32.5,35.3c-0.1-0.3-0.3-0.5-0.6-0.6c-1.2-0.5-3.4,0.6-3.3-1.1c0,0-0.8,0.6-0.4,1.2
		C29,36.2,31.3,34.4,32.5,35.3L32.5,35.3z M22.2,49.4c-0.6,0.6-0.9,0.7-0.8,0.9c0.1,0.4,0.4,0.7,0.7,1c0.4,0.3,0.5,0.6,0.2-0.3
		C22.1,50.4,22.2,49.9,22.2,49.4L22.2,49.4z M17.7,37.1L17.7,37.1c0,1.4-3.7,3.3-5.3,4.1c2.5,0.9,4.8-1.4,4.5-0.9
		c-0.3,0.7-3.3,3.4-4.6,4.7c1,0.3,2-0.5,2.7-1.2c0.8-0.7,2.2-2.4,2-1.6c-2.2,2.7-3.9,8.3-2.9,8.7c0.6-1.3,3.1-7.8,3.3-7.7
		c0.2,0-0.2,1.7-0.3,2.8c-0.1,2.5-0.1,3.6,0.4,6c0.3-0.4,0.5-0.4,1-0.3c0.1-0.2,0-0.2-0.2-0.5c-0.7-0.9,0.1-2.2-0.2-3
		c-0.3-0.6-0.4-0.1-0.6-0.8c0.2-0.2,0.7-0.2,0.9-0.3c0.2-2.5,1.1-3.8,0.8-2.2c-0.2,0.8-0.4,2.1-0.3,2.2c0.1,0,0.1,0,0.2,0.1
		c0,0,4.2-6.9,1.9-2.1c-0.3,0.6-1.5,2.3-1.5,2.3c0.3,0.3,0.6,0.7,0.7,1c0,0.1,5.6-7.4,1.8-1.4c-0.2,0.4-1.4,1.6-1.7,1.9l0.1,1.4
		c0.6-0.4,1.4-1.2,1.8-1.7c-0.1-0.8,0.1-0.7,0.2-1.4c0.2-0.1,0.4,0.2,0.7,0.5c0.1,0.1,3.8-6.3,1.5-1.5c-0.4,0.8-1.2,1.7-1.2,1.8
		c0.2,0.2,0.4,0.7,0.7,1.3c0,0,5-7.1,2-1.7c-0.2,0.4-1.7,2.2-1.7,2.3c0.4,0.9,0.7,1.8,0.7,1.8c-0.1-0.7-0.2-2.1,1.2-3.2
		c0.2,1.2,0.5,1.3,1,1.7c0.2,0.2,0.5,0.9,0.6,0.3c0.1-1.8-0.5-1.7-0.9-2.5c-0.1-0.2-0.1-0.6,0-0.6c3.6,0.1,3.4,3.4,4,3.4
		c-0.3-0.9-0.3-1.7,0-2.4c-1-0.7-0.7-1.8-0.5-2.3c-1.1-1.1-0.5-3.5,0.1-4c-0.7-1,0.2-1.7,0-2.3c-0.3-2.2-2.2-1.5-2.7-3.6
		c-0.3,0.4-0.9,1.6-0.6,2c0.3,0.5,1,0.5,1,0.9c0,0.1,0.1,0.6,0,0.7c-0.4,0.1-0.6-0.3-1-0.4c-0.8-0.3-2.6,1-2.7-0.2
		c-0.1-0.7,0.2-0.2,0.2-0.8c0-0.7-0.4-0.2-0.4-1.1c0-0.6,0.8-0.8,0.8-1.1c0.1-0.6,1.3,0.9,1.9-0.7c-0.4,0.1-1.2-0.2-1.1-0.6
		c0.2-1,0.2-3.5-2.1-3c-0.8,0.2-3.1,1.4-3.5,0.1c-0.8,1.5,0.8,1.2,1.3,1.2c-0.2,0.1-0.4,0.4-1.1,0.2c-1.3,0.9-6.1,3.9-7.4,4.6
		C14.8,38.9,17.7,37.1,17.7,37.1L17.7,37.1z M19.1,53.6c-0.4-0.2-0.9-0.3-1.3-0.6c0.3,1,0.5,1.8,1,2.9
		C19.1,56.5,19.6,55.1,19.1,53.6L19.1,53.6z"/>
</g>
</svg>
